<svg id="Capa_1" data-name="Capa 1" xmlns="http://www.w3.org/2000/svg" viewBox="0 0 154.62 154.62"><path d="M153.42,77.31A76.12,76.12,0,1,1,77.31,1.19,76.11,76.11,0,0,1,153.42,77.31Z" style="fill:#ccc7aa"/><path d="M47.68,24.92A5.65,5.65,0,1,1,42,19.28,5.64,5.64,0,0,1,47.68,24.92Z" style="fill:#43d6cb"/><path d="M42,19.28a5.63,5.63,0,0,0-4.64,2.43,5.56,5.56,0,0,1,3.21-1,5.65,5.65,0,0,1,5.65,5.65,5.56,5.56,0,0,1-1,3.21A5.64,5.64,0,0,0,42,19.28Z" style="fill:#00998a"/><circle cx="19.1" cy="51.05" r="7.91" transform="translate(-30.5 28.45) rotate(-45)" style="fill:#43d6cb"/><path d="M19.1,43.13a7.91,7.91,0,0,0-6.51,3.41,7.91,7.91,0,0,1,11,11,7.91,7.91,0,0,0-4.5-14.42Z" style="fill:#00998a"/><circle cx="64.53" cy="11.36" r="7.91" transform="translate(49.62 75.16) rotate(-86.83)" style="fill:#43d6cb"/><path d="M64.53,3.45A7.89,7.89,0,0,0,58,6.86a7.9,7.9,0,0,1,11,11,7.91,7.91,0,0,0-4.5-14.41Z" style="fill:#00998a"/><circle cx="31.67" cy="23.48" r="2.86" style="fill:#43d6cb"/><path d="M31.67,20.62A2.84,2.84,0,0,0,29.23,22a2.91,2.91,0,0,1,1.46-.41,2.86,2.86,0,0,1,2.86,2.85,2.92,2.92,0,0,1-.41,1.47,2.85,2.85,0,0,0-1.47-5.3Z" style="fill:#00998a"/><path d="M35.5,18A2.85,2.85,0,0,0,37,12.73q-2.22,1.38-4.32,2.91A2.85,2.85,0,0,0,35.5,18Z" style="fill:#43d6cb"/><path d="M37.39,16.11A2.83,2.83,0,0,1,37,17.58,2.84,2.84,0,0,0,37,12.73c-.43.26-.85.53-1.27.81A2.86,2.86,0,0,1,37.39,16.11Z" style="fill:#00998a"/><circle cx="45.19" cy="15.76" r="2.86" transform="translate(27.4 60.19) rotate(-87.4)" style="fill:#43d6cb"/><path d="M45.19,12.9a2.85,2.85,0,0,0-2.44,1.4,2.84,2.84,0,0,1,4.32,2.44,2.91,2.91,0,0,1-.41,1.46,2.85,2.85,0,0,0-1.47-5.3Z" style="fill:#00998a"/><path d="M53.76,9.75A2.86,2.86,0,1,1,50.9,6.89,2.86,2.86,0,0,1,53.76,9.75Z" style="fill:#43d6cb"/><path d="M50.9,6.89a2.85,2.85,0,0,0-2.44,1.4,2.84,2.84,0,0,1,3.91,3.9,2.85,2.85,0,0,0-1.47-5.3Z" style="fill:#00998a"/><circle cx="53.76" cy="17.37" r="2.86" transform="translate(-0.57 1.88) rotate(-2)" style="fill:#43d6cb"/><path d="M53.76,14.51a2.84,2.84,0,0,0-2.44,1.39,2.82,2.82,0,0,1,1.46-.41,2.84,2.84,0,0,1,2.44,4.32,2.85,2.85,0,0,0-1.46-5.3Z" style="fill:#00998a"/><path d="M34,33.43a2.86,2.86,0,1,1-2.86-2.86A2.86,2.86,0,0,1,34,33.43Z" style="fill:#43d6cb"/><path d="M31.17,30.57A2.84,2.84,0,0,0,28.73,32a2.85,2.85,0,0,1,3.91,3.91,2.85,2.85,0,0,0-1.47-5.3Z" style="fill:#00998a"/><path d="M27.5,28.78a2.86,2.86,0,1,1-2.86-2.86A2.86,2.86,0,0,1,27.5,28.78Z" style="fill:#43d6cb"/><path d="M24.64,25.92a2.83,2.83,0,0,0-2.43,1.39,2.77,2.77,0,0,1,1.46-.42,2.84,2.84,0,0,1,2.44,4.33,2.85,2.85,0,0,0-1.47-5.3Z" style="fill:#00998a"/><circle cx="21.54" cy="36.96" r="2.86" style="fill:#43d6cb"/><path d="M21.54,34.1a2.85,2.85,0,0,0-2.44,1.4,2.8,2.8,0,0,1,1.46-.42,2.86,2.86,0,0,1,2.86,2.86A2.82,2.82,0,0,1,23,39.4a2.85,2.85,0,0,0-1.46-5.3Z" style="fill:#00998a"/><path d="M77.31,1.19c-.85,0-1.7,0-2.54.05a76.11,76.11,0,0,1,0,152.14c.84,0,1.69,0,2.54,0a76.12,76.12,0,0,0,0-152.23Z" style="fill:#9e9566"/><path d="M140.32,76.85a63,63,0,1,1-63-63A63,63,0,0,1,140.32,76.85Z" style="fill:#007062"/><circle cx="77.31" cy="76.85" r="56.23" transform="translate(-0.44 0.45) rotate(-0.33)" style="fill:#00998a"/><circle cx="77.31" cy="76.85" r="51.43" transform="translate(-0.36 0.36) rotate(-0.27)" style="fill:#4fb7b3"/><path d="M77.31,25.42c-1.14,0-2.27.06-3.39.13a51.42,51.42,0,0,1,0,102.61c1.12.07,2.25.12,3.39.12a51.43,51.43,0,0,0,0-102.86Z" style="fill:#43d6cb"/><polygon points="109.97 71.97 114.14 62.18 65.62 92.81 35.39 80.67 39.81 90.67 65.66 119.67 109.97 71.97" style="fill:#00998a"/><polygon points="114.14 62.18 102.3 50.34 65.62 87.21 47.24 68.82 35.39 80.67 65.66 110.93 114.14 62.18" style="fill:#f2efd5"/></svg>