<svg id="Capa_1" data-name="Capa 1" xmlns="http://www.w3.org/2000/svg" viewBox="0 0 154.62 154.62"><path d="M154.62,154.62A154.63,154.63,0,0,1,0,0H154.62Z" style="fill:#ccc7aa"/><path d="M15.1,37.78a3.79,3.79,0,1,0-5.36.2A3.78,3.78,0,0,0,15.1,37.78Z" style="fill:#ff9311"/><path d="M16.86,15.47a5.31,5.31,0,1,0-7.51.28A5.31,5.31,0,0,0,16.86,15.47Z" style="fill:#ff9311"/><path d="M21.09,55.76a5.31,5.31,0,1,0-7.51.28A5.3,5.3,0,0,0,21.09,55.76Z" style="fill:#ff9311"/><path d="M8,32.47a1.92,1.92,0,1,0-2.72.11A1.92,1.92,0,0,0,8,32.47Z" style="fill:#ff9311"/><path d="M11.09,42.45a1.92,1.92,0,1,0-2.71.1A1.91,1.91,0,0,0,11.09,42.45Z" style="fill:#ff9311"/><path d="M11.16,48a1.92,1.92,0,1,0-2.71.1A1.91,1.91,0,0,0,11.16,48Z" style="fill:#ff9311"/><path d="M16.05,45.58a1.92,1.92,0,1,0-2.72.1A1.94,1.94,0,0,0,16.05,45.58Z" style="fill:#ff9311"/><path d="M12.26,27.35a1.92,1.92,0,1,0-2.71.1A1.91,1.91,0,0,0,12.26,27.35Z" style="fill:#ff9311"/><path d="M6.93,26.66a1.92,1.92,0,1,0-2.71.1A1.92,1.92,0,0,0,6.93,26.66Z" style="fill:#ff9311"/><path d="M9.14,21.21a1.92,1.92,0,1,0-2.71.1A1.92,1.92,0,0,0,9.14,21.21Z" style="fill:#ff9311"/><path d="M9.74,38a3.81,3.81,0,0,1-1.17-3.32,3.72,3.72,0,0,0,1.12,2,3.78,3.78,0,0,0,5.36-.2,3.67,3.67,0,0,0,1-2A3.79,3.79,0,0,1,9.74,38Z" style="fill:#e87e0c"/><path d="M9.35,15.75A5.28,5.28,0,0,1,7.71,11.1a5.26,5.26,0,0,0,1.57,2.76,5.32,5.32,0,0,0,7.51-.28,5.22,5.22,0,0,0,1.36-2.87,5.31,5.31,0,0,1-8.8,5Z" style="fill:#e87e0c"/><path d="M13.58,56a5.28,5.28,0,0,1-1.64-4.65A5.31,5.31,0,0,0,22.39,51a5.32,5.32,0,0,1-8.81,5Z" style="fill:#e87e0c"/><path d="M5.25,32.58a1.93,1.93,0,0,1-.56-1.8,1.89,1.89,0,0,0,.53.87,1.91,1.91,0,0,0,2.71-.1,1.86,1.86,0,0,0,.47-.91,1.92,1.92,0,0,1-3.15,1.94Z" style="fill:#e87e0c"/><path d="M8.38,42.55a1.89,1.89,0,0,1-.56-1.8,1.84,1.84,0,0,0,.53.88,1.92,1.92,0,0,0,2.71-.1,1.8,1.8,0,0,0,.46-.91,1.89,1.89,0,0,1-.43,1.83A1.91,1.91,0,0,1,8.38,42.55Z" style="fill:#e87e0c"/><path d="M8.45,48.12a1.92,1.92,0,0,1-.57-1.8,1.94,1.94,0,0,0,.54.88,1.91,1.91,0,0,0,3.17-1,1.91,1.91,0,0,1-3.14,1.94Z" style="fill:#e87e0c"/><path d="M13.33,45.68a1.93,1.93,0,0,1-.56-1.8,1.89,1.89,0,0,0,.53.87,1.91,1.91,0,0,0,2.71-.1,1.86,1.86,0,0,0,.47-.91,1.92,1.92,0,0,1-3.15,1.94Z" style="fill:#e87e0c"/><path d="M9.55,27.45A1.91,1.91,0,0,1,9,25.65a1.9,1.9,0,0,0,3.24.78,1.83,1.83,0,0,0,.46-.92,1.88,1.88,0,0,1-.43,1.84A1.91,1.91,0,0,1,9.55,27.45Z" style="fill:#e87e0c"/><path d="M4.22,26.76A1.9,1.9,0,0,1,3.65,25a1.89,1.89,0,0,0,.53.87,1.91,1.91,0,0,0,2.71-.1,1.86,1.86,0,0,0,.47-.91,1.91,1.91,0,0,1-3.14,1.94Z" style="fill:#e87e0c"/><path d="M6.43,21.31a1.9,1.9,0,0,1-.57-1.8,1.89,1.89,0,0,0,.53.87,1.91,1.91,0,0,0,2.71-.1,1.86,1.86,0,0,0,.47-.91,1.91,1.91,0,0,1-3.14,1.94Z" style="fill:#e87e0c"/><path d="M154.62,144A144,144,0,0,1,10.62,0h144Z" style="fill:#ff9311"/><path d="M154.62,144A144,144,0,0,1,10.62,0h144Z" style="fill:#ff9311"/><path d="M16.25,0A144,144,0,0,0,154.62,143.88V144A144,144,0,0,1,10.62,0Z" style="fill:#e57a05"/><path d="M154.62,24.42A24.42,24.42,0,0,1,130.2,0h24.42Z" style="fill:#e57a05"/><path d="M133.42,0h21.2V24.2A24.42,24.42,0,0,1,133.42,0Z" style="fill:#ffa13b"/><path d="M146,14.83c.94-4.35,1.71-5.11,6-6.05-4.34-.95-5.11-1.71-6-6.06-.94,4.35-1.71,5.11-6.05,6.06C144.25,9.72,145,10.48,146,14.83Z" style="fill:#f9bd82"/><path d="M99.66,61.32a18.24,18.24,0,1,1,0-25.8A18.25,18.25,0,0,1,99.66,61.32Z" style="fill:#fcac54"/><path d="M66.39,28a28.82,28.82,0,1,0,40.75,0A28.81,28.81,0,0,0,66.39,28ZM99.66,61.32a18.24,18.24,0,1,1,0-25.8A18.25,18.25,0,0,1,99.66,61.32Z" style="fill:#fff"/><path d="M101.43,70.48l29.45,29.46a5.32,5.32,0,0,0,7.52-7.52L108.94,63Z" style="fill:#fff"/><path d="M77.07,38.38a13,13,0,0,0-3.61,11.53,13,13,0,0,1,25.66,0A13,13,0,0,0,77.07,38.38Z" style="fill:#fff"/></svg>