<svg version="1.1" id="background_svg__Layer_1" xmlns="http://www.w3.org/2000/svg" x="0" y="0" viewBox="240 0 1440 1080" xml:space="preserve"><style>.background_svg__st0{fill:#fffbf2}.background_svg__st1{fill:#f7f4dd}.background_svg__st5{fill:#abbf1a}.background_svg__st7{fill:#4fb8b5}.background_svg__st8{fill:#f39100}.background_svg__st11{fill:#e53212}.background_svg__st69{fill:#5c3018}.background_svg__st71{fill:#f7b695}.background_svg__st74{fill:#df8562}.background_svg__st76{fill:#fafafb}.background_svg__st77{fill:#382b25}.background_svg__st78{fill:#5e463e}.background_svg__st93{fill:#495508}.background_svg__st95{fill:#5e6c0d}.background_svg__st96{fill:#809114}.background_svg__st97{fill:#41aca9}.background_svg__st98{fill:#3fa6a2}.background_svg__st99{fill:#58660c}.background_svg__st102{fill:#54620b}.background_svg__st103{fill:#6e7d11}.background_svg__st104{fill:#22722e}.background_svg__st105{fill:#175823}.background_svg__st106{fill:#257e34}.background_svg__st107{fill:#278939}.background_svg__st108{fill:#e1dbc9}.background_svg__st109{fill:#c3bfb9}.background_svg__st110{fill:#f4eee6}.background_svg__st111{fill:#e9e5e3}.background_svg__st112{fill:#c2d131}.background_svg__st139{fill:#3b4703}</style><path id="background_svg__XMLID_1591_" class="background_svg__st0" d="M.1-179.8h1925.1v1442.3H.1z"/><path id="background_svg__XMLID_1489_" class="background_svg__st0" d="M.1-179.8h1920v1440H.1z"/><circle id="background_svg__XMLID_1413_" transform="rotate(-84.559 200.653 168.013)" cx="200.7" cy="168" opacity=".2" fill="#4fb8b5" r="84"/><g id="background_svg__XMLID_1307_"><path id="background_svg__XMLID_10_" class="background_svg__st93" d="M191.7 491.4L131 335.7l-70.6-44.1-28.7-154.7L.1 119.2v376z"/><path id="background_svg__XMLID_780_" fill="#3e4b04" d="M60.4 291.6l27.9 37.1L110 502.2l-74-45.5z"/><path id="background_svg__XMLID_509_" class="background_svg__st95" d="M88.3 328.7l21.2 169.5 86.7 4L131 335.7z"/><path id="background_svg__XMLID_511_" class="background_svg__st96" d="M60.4 291.6l27.9 37.1 42.7 7z"/><path id="background_svg__XMLID_786_" class="background_svg__st95" d="M31.7 136.9L.1 140.7v-21.5z"/></g><g id="background_svg__XMLID_47_"><path id="background_svg__XMLID_1903_" class="background_svg__st93" d="M105.4 477.8L283.7 74.3H357l73.3 123.3 111-11.6 49.5 151.6L885.2 418l211.3 70.1-24.8 94s-684.1 4.7-891.1-45.5l-75.2-58.8z"/><path id="background_svg__XMLID_376_" class="background_svg__st139" d="M320.4 142.1l-56.5 375-158.5-39.3L283.7 74.3z"/><path id="background_svg__XMLID_497_" class="background_svg__st96" d="M541.3 186.1l-111 11.5 127.2 39.6z"/><path id="background_svg__XMLID_498_" class="background_svg__st139" d="M430.3 197.6l160.4 140-33.2-100.4z"/><path id="background_svg__XMLID_499_" class="background_svg__st95" d="M357 74.3h-73.3l36.7 67.8z"/><g id="background_svg__XMLID_50_"><path id="background_svg__XMLID_49_" class="background_svg__st139" d="M406.1 202.2c0 1.5-7 2.6-15.6 2.6s-15.6-1.2-15.6-2.6c0-1.5 7-2.6 15.6-2.6s15.6 1.2 15.6 2.6z"/><ellipse id="background_svg__XMLID_51_" class="background_svg__st139" cx="374" cy="210.7" rx="15.6" ry="2.6"/><ellipse id="background_svg__XMLID_52_" class="background_svg__st139" cx="408.8" cy="210.7" rx="15.6" ry="2.6"/><ellipse id="background_svg__XMLID_53_" class="background_svg__st139" cx="391.4" cy="219.9" rx="15.6" ry="2.6"/><ellipse id="background_svg__XMLID_55_" class="background_svg__st139" cx="358.4" cy="218.9" rx="15.6" ry="2.6"/><ellipse id="background_svg__XMLID_56_" class="background_svg__st139" cx="426.1" cy="219.9" rx="15.6" ry="2.6"/><path id="background_svg__XMLID_57_" class="background_svg__st139" d="M425.1 228.7c0 1.5-7 2.6-15.6 2.6s-15.6-1.2-15.6-2.6c0-1.5 7-2.6 15.6-2.6s15.6 1.2 15.6 2.6z"/><path id="background_svg__XMLID_276_" class="background_svg__st139" d="M389.7 228.7c0 1.5-7 2.6-15.6 2.6s-15.6-1.2-15.6-2.6c0-1.5 7-2.6 15.6-2.6s15.6 1.2 15.6 2.6z"/><ellipse id="background_svg__XMLID_279_" class="background_svg__st139" cx="337.8" cy="227.7" rx="15.6" ry="2.6"/><ellipse id="background_svg__XMLID_349_" class="background_svg__st139" cx="354.8" cy="235.4" rx="15.6" ry="2.6"/><ellipse id="background_svg__XMLID_351_" class="background_svg__st139" cx="391.4" cy="235.4" rx="15.6" ry="2.6"/><ellipse id="background_svg__XMLID_416_" class="background_svg__st139" cx="370.4" cy="243.8" rx="15.6" ry="2.6"/><ellipse id="background_svg__XMLID_479_" class="background_svg__st139" cx="405.3" cy="243.8" rx="15.6" ry="2.6"/><ellipse id="background_svg__XMLID_480_" class="background_svg__st139" cx="386.1" cy="253" rx="15.6" ry="2.6"/></g><g id="background_svg__XMLID_482_"><ellipse id="background_svg__XMLID_512_" class="background_svg__st139" cx="581.3" cy="416" rx="27.2" ry="4.6"/><ellipse id="background_svg__XMLID_510_" class="background_svg__st139" cx="552.7" cy="430.6" rx="27.2" ry="4.6"/><ellipse id="background_svg__XMLID_508_" class="background_svg__st139" cx="613.2" cy="430.6" rx="27.2" ry="4.6"/><ellipse id="background_svg__XMLID_507_" class="background_svg__st139" cx="582.9" cy="446.7" rx="27.2" ry="4.6"/><ellipse id="background_svg__XMLID_506_" class="background_svg__st139" cx="525.5" cy="444.9" rx="27.2" ry="4.6"/><ellipse id="background_svg__XMLID_504_" class="background_svg__st139" cx="643.2" cy="446.7" rx="27.2" ry="4.6"/><path id="background_svg__XMLID_502_" class="background_svg__st139" d="M641.5 462c0 2.5-12.2 4.6-27.2 4.6s-27.2-2.1-27.2-4.6c0-2.5 12.2-4.6 27.2-4.6s27.2 2.1 27.2 4.6z"/><path id="background_svg__XMLID_492_" class="background_svg__st139" d="M579.9 462c0 2.5-12.2 4.6-27.2 4.6s-27.2-2.1-27.2-4.6c0-2.5 12.2-4.6 27.2-4.6s27.2 2.1 27.2 4.6z"/><path id="background_svg__XMLID_491_" class="background_svg__st139" d="M516.9 460.3c0 2.5-12.2 4.6-27.2 4.6s-27.2-2.1-27.2-4.6 12.2-4.6 27.2-4.6 27.2 2.1 27.2 4.6z"/><path id="background_svg__XMLID_490_" class="background_svg__st139" d="M546.4 473.6c0 2.5-12.2 4.6-27.2 4.6s-27.2-2.1-27.2-4.6c0-2.5 12.2-4.6 27.2-4.6 15.1 0 27.2 2 27.2 4.6z"/><path id="background_svg__XMLID_489_" class="background_svg__st139" d="M610.1 473.6c0 2.5-12.2 4.6-27.2 4.6s-27.2-2.1-27.2-4.6c0-2.5 12.2-4.6 27.2-4.6 15.1 0 27.2 2 27.2 4.6z"/><path id="background_svg__XMLID_487_" class="background_svg__st139" d="M573.6 488.3c0 2.5-12.2 4.6-27.2 4.6s-27.2-2.1-27.2-4.6 12.2-4.6 27.2-4.6 27.2 2.1 27.2 4.6z"/><path id="background_svg__XMLID_485_" class="background_svg__st139" d="M634.3 488.3c0 2.5-12.2 4.6-27.2 4.6s-27.2-2.1-27.2-4.6 12.2-4.6 27.2-4.6 27.2 2.1 27.2 4.6z"/><path id="background_svg__XMLID_484_" class="background_svg__st139" d="M600.8 504.2c0 2.5-12.2 4.6-27.2 4.6s-27.2-2.1-27.2-4.6c0-2.5 12.2-4.6 27.2-4.6 15.1 0 27.2 2 27.2 4.6z"/></g></g><g id="background_svg__XMLID_48_"><path id="background_svg__XMLID_1904_" fill="#6f7f11" d="M1253.4 397l113.5-133.7 165.9-37L1719-94.1l201.1-85.7v791.6l-666.7-26.1z"/><path id="background_svg__XMLID_274_" class="background_svg__st95" d="M1601.9 274l48.7 298.8-442.6-8 158.9-301.5z"/><path id="background_svg__XMLID_311_" class="background_svg__st96" d="M1366.9 263.3l235 10.7-69.1-47.7z"/><path id="background_svg__XMLID_313_" fill="#616f0e" d="M1719-94.1l66.7 579.3 135.9-387.3-1.5-211.3z"/></g><g id="background_svg__XMLID_46_"><path id="background_svg__XMLID_1900_" class="background_svg__st95" d="M1029.1 573.6c-285-34.4-307.7-50.4-307.7-50.4l145-156.4 250.8-8.2 175.2-160.2h123.9l73.1 359.3c.1.1-175.2 50.3-460.3 15.9z"/><path id="background_svg__XMLID_500_" fill="#53600b" d="M866.4 366.9l80.4 50.3 47.8 130.3L744 497.3z"/><path id="background_svg__XMLID_503_" class="background_svg__st93" d="M1345.7 248.7l146.7 313.1-76-363.3z"/><path id="background_svg__XMLID_501_" class="background_svg__st96" d="M1292.5 198.5l53.2 50.2 70.7-50.2z"/><path id="background_svg__XMLID_505_" class="background_svg__st96" d="M866.4 366.9l80.4 50.3 170.4-58.5z"/></g><path id="background_svg__XMLID_309_" d="M571.1 524.1c-9.6-.1-19.1-.1-28.5-.1-237-3.4-454.1-31.8-542.5-92v828.2h1920V573.8S1021 527 571.1 524.1z" fill="#45b8b4"/><g id="background_svg__XMLID_2226_"><ellipse id="background_svg__XMLID_275_" class="background_svg__st97" cx="444.8" cy="592.3" rx="90.6" ry="2.3"/><ellipse id="background_svg__XMLID_2275_" class="background_svg__st97" cx="382.2" cy="582.5" rx="90.6" ry="2.3"/><ellipse id="background_svg__XMLID_2283_" class="background_svg__st97" cx="281.2" cy="568.6" rx="90.6" ry="2.3"/><ellipse id="background_svg__XMLID_2284_" class="background_svg__st97" cx="349" cy="558.4" rx="90.6" ry="2.3"/><ellipse id="background_svg__XMLID_2282_" class="background_svg__st97" cx="472.8" cy="573.3" rx="90.6" ry="2.3"/></g><g id="background_svg__XMLID_2286_"><ellipse id="background_svg__XMLID_2338_" class="background_svg__st97" cx="1489.4" cy="591.2" rx="50.7" ry="1.8"/><path id="background_svg__XMLID_2337_" class="background_svg__st97" d="M1505.1 583.6c0 1-22.7 1.8-50.7 1.8s-50.7-.8-50.7-1.8 22.7-1.8 50.7-1.8 50.7.8 50.7 1.8z"/><path id="background_svg__XMLID_2336_" class="background_svg__st97" d="M1448.6 572.8c0 1-22.7 1.8-50.7 1.8-28 0-50.7-.8-50.7-1.8s22.7-1.8 50.7-1.8c28 0 50.7.8 50.7 1.8z"/><ellipse id="background_svg__XMLID_2335_" class="background_svg__st97" cx="1435.8" cy="564.8" rx="50.7" ry="1.8"/><ellipse id="background_svg__XMLID_2334_" class="background_svg__st97" cx="1505.1" cy="576.5" rx="50.7" ry="1.8"/></g><g id="background_svg__XMLID_2339_"><ellipse id="background_svg__XMLID_2346_" class="background_svg__st97" cx="1173.2" cy="1022.6" rx="95.9" ry="3.4"/><ellipse id="background_svg__XMLID_2344_" class="background_svg__st97" cx="1106.9" cy="1008.1" rx="95.9" ry="3.4"/><ellipse id="background_svg__XMLID_2342_" class="background_svg__st97" cx="1000" cy="987.8" rx="95.9" ry="3.4"/><ellipse id="background_svg__XMLID_2341_" class="background_svg__st97" cx="1071.7" cy="972.7" rx="95.9" ry="3.4"/><path id="background_svg__XMLID_2340_" class="background_svg__st97" d="M1298.7 994.7c0 1.9-42.9 3.4-95.9 3.4s-95.9-1.5-95.9-3.4 42.9-3.4 95.9-3.4 95.9 1.5 95.9 3.4z"/></g><g id="background_svg__XMLID_352_"><path id="background_svg__XMLID_347_" class="background_svg__st98" d="M314.9 933.4l-60 140.1-63.2 63L.1 1229.2v-42.9z"/><path id="background_svg__XMLID_791_" class="background_svg__st95" d="M323.7 883c.2 37.6-17.8 110.1-107.6 170.6C168 1085.9 55.8 1170 .1 1186.3V968.5L323.7 883z"/><path id="background_svg__XMLID_790_" class="background_svg__st5" d="M.1 1037.7s339.6-66.1 323-164.1C306.5 775.6.1 728.3.1 728.3v309.4z"/><ellipse id="background_svg__XMLID_833_" class="background_svg__st112" cx="53.5" cy="961.7" rx="27" ry="8"/><ellipse id="background_svg__XMLID_835_" class="background_svg__st112" cx="4.9" cy="988.3" rx="27" ry="8"/><ellipse id="background_svg__XMLID_953_" class="background_svg__st112" cx=".1" cy="937.2" rx="27" ry="8"/><ellipse id="background_svg__XMLID_1450_" class="background_svg__st112" cx="72.1" cy="996.3" rx="27" ry="8"/><ellipse id="background_svg__XMLID_1451_" class="background_svg__st112" cx="126.1" cy="967" rx="27" ry="8"/><ellipse id="background_svg__XMLID_1496_" class="background_svg__st112" cx="88.1" cy="929.2" rx="27" ry="8"/><ellipse id="background_svg__XMLID_1497_" class="background_svg__st112" cx="39.5" cy="897.9" rx="27" ry="8"/><g id="background_svg__XMLID_2123_"><g id="background_svg__XMLID_2167_"><path id="background_svg__XMLID_2169_" class="background_svg__st99" d="M21.5 1056.7c-6 5.1-13.3 6.4-16.4 2.8-3.1-3.6-.8-10.7 5.2-15.8s21.6-7.2 21.6-7.2-4.5 15.1-10.4 20.2z"/><path id="background_svg__XMLID_2168_" class="background_svg__st99" d="M42.2 1058.3c5.1 6 12.2 8.3 15.8 5.2 3.6-3.1 2.4-10.4-2.8-16.4S35 1036.8 35 1036.8s2.1 15.6 7.2 21.5z"/></g><g id="background_svg__XMLID_2164_"><path id="background_svg__XMLID_2166_" class="background_svg__st99" d="M21.5 1085.1c-6 5.1-13.3 6.4-16.4 2.8-3.1-3.6-.8-10.7 5.2-15.8 6-5.1 21.6-7.2 21.6-7.2s-4.5 15.1-10.4 20.2z"/><path id="background_svg__XMLID_2165_" class="background_svg__st99" d="M42.2 1086.7c5.1 6 12.2 8.3 15.8 5.2 3.6-3.1 2.4-10.4-2.8-16.4S35 1065.1 35 1065.1s2.1 15.6 7.2 21.6z"/></g></g></g><g id="background_svg__XMLID_834_"><path id="background_svg__XMLID_787_" class="background_svg__st98" d="M4.9 535.3l7.8 23.5 23 10.2 16.5 13.9 37.5-6.3 16.5-34.7z"/><path id="background_svg__XMLID_789_" class="background_svg__st5" d="M54.5 512.2c51.9 14.9 95.7 45.8-26.2 33.2-52.3-5.3-6.6-42.6 26.2-33.2z"/><g id="background_svg__XMLID_797_"><path id="background_svg__XMLID_792_" class="background_svg__st112" d="M82.5 544.2c0 .6-2.4 1.1-5.4 1.1-3 0-5.4-.5-5.4-1.1 0-.6 2.4-1.1 5.4-1.1 3 0 5.4.5 5.4 1.1z"/><path id="background_svg__XMLID_799_" class="background_svg__st112" d="M77.1 540.7c0 .6-2.4 1.1-5.4 1.1-3 0-5.4-.5-5.4-1.1s2.4-1.1 5.4-1.1c3 0 5.4.5 5.4 1.1z"/><path id="background_svg__XMLID_802_" class="background_svg__st112" d="M89.4 540.7c0 .6-2.4 1.1-5.4 1.1-3 0-5.4-.5-5.4-1.1s2.4-1.1 5.4-1.1c3 0 5.4.5 5.4 1.1z"/><ellipse id="background_svg__XMLID_804_" class="background_svg__st112" cx="78.1" cy="537.2" rx="5.4" ry="1.1"/><path id="background_svg__XMLID_805_" class="background_svg__st112" d="M71.1 536.9c0 .6-2.4 1.1-5.4 1.1-3 0-5.4-.5-5.4-1.1s2.4-1.1 5.4-1.1c3 0 5.4.5 5.4 1.1z"/><path id="background_svg__XMLID_807_" class="background_svg__st112" d="M78.1 533.7c0 .6-2.4 1.1-5.4 1.1-3 0-5.4-.5-5.4-1.1 0-.6 2.4-1.1 5.4-1.1 3 0 5.4.5 5.4 1.1z"/><ellipse id="background_svg__XMLID_809_" class="background_svg__st112" cx="91.1" cy="537.2" rx="5.4" ry="1.1"/><path id="background_svg__XMLID_811_" class="background_svg__st112" d="M90.2 533.7c0 .6-2.4 1.1-5.4 1.1-3 0-5.4-.5-5.4-1.1 0-.6 2.4-1.1 5.4-1.1 3 0 5.4.5 5.4 1.1z"/><path id="background_svg__XMLID_832_" class="background_svg__st112" d="M84.1 531c0 .6-2.4 1.1-5.4 1.1s-5.4-.5-5.4-1.1 2.4-1.1 5.4-1.1 5.4.5 5.4 1.1z"/></g></g><g id="background_svg__XMLID_2244_"><path id="background_svg__XMLID_2264_" class="background_svg__st98" d="M4.3 471.4l3.8 9.2 15.3 5.7 15.1 5.1 19.1-4.6 5.5-11.6z"/><path id="background_svg__XMLID_2263_" class="background_svg__st96" d="M33.1 458c30.1 8.7 55.6 26.6-15.2 19.3-30.4-3.1-3.8-24.8 15.2-19.3z"/><g id="background_svg__XMLID_2245_"><ellipse id="background_svg__XMLID_2262_" class="background_svg__st103" cx="46.2" cy="476.5" rx="3.1" ry=".6"/><ellipse id="background_svg__XMLID_2261_" class="background_svg__st103" cx="43.1" cy="474.5" rx="3.1" ry=".6"/><ellipse id="background_svg__XMLID_2256_" class="background_svg__st103" cx="50.3" cy="474.5" rx="3.1" ry=".6"/><ellipse id="background_svg__XMLID_2255_" class="background_svg__st103" cx="46.8" cy="472.5" rx="3.1" ry=".6"/><path id="background_svg__XMLID_2254_" class="background_svg__st103" d="M42.8 472.3c0 .4-1.4.6-3.1.6-1.7 0-3.1-.3-3.1-.6s1.4-.6 3.1-.6c1.7 0 3.1.2 3.1.6z"/><ellipse id="background_svg__XMLID_2253_" class="background_svg__st103" cx="43.7" cy="470.4" rx="3.1" ry=".6"/><ellipse id="background_svg__XMLID_2252_" class="background_svg__st103" cx="54.4" cy="472.5" rx="3.1" ry=".6"/><ellipse id="background_svg__XMLID_2251_" class="background_svg__st103" cx="50.7" cy="470.4" rx="3.1" ry=".6"/><ellipse id="background_svg__XMLID_2246_" class="background_svg__st103" cx="47.2" cy="468.9" rx="3.1" ry=".6"/></g></g><g id="background_svg__XMLID_1633_"><ellipse id="background_svg__XMLID_2227_" class="background_svg__st98" cx="422.7" cy="1057" rx="51.2" ry="20"/><ellipse id="background_svg__XMLID_2228_" class="background_svg__st98" cx="348.2" cy="1050.8" rx="51.2" ry="20"/><g id="background_svg__XMLID_1523_"><path id="background_svg__XMLID_1517_" class="background_svg__st104" d="M399.6 1077.1c-1-4-4.7-8.4-6.5-10.4-17 2.3-30.2 12-29.9 22.9.6 11.9 20.3 20.8 43.6 20 23.1-.8 37.7-11.3 33-23.3-4.2-11.1-20.6-19.6-37.9-20-2.4 4.1-2.3 10.8-2.3 10.8z"/></g><g id="background_svg__XMLID_1612_"><path id="background_svg__XMLID_1614_" class="background_svg__st104" d="M316 1020.9c-1-4-4.7-8.4-6.5-10.4-17 2.3-30.2 12-29.9 22.9.6 11.9 20.3 20.8 43.6 20 23.1-.8 37.7-11.3 33-23.3-4.2-11.1-20.6-19.6-37.9-20-2.4 4.1-2.3 10.8-2.3 10.8z"/><path id="background_svg__XMLID_1613_" class="background_svg__st105" d="M321.7 1033.9c0 .6-1.6 1.2-3.5 1.2s-3.5-.5-3.5-1.2c0-.6 1.6-1.2 3.5-1.2 2 0 3.5.5 3.5 1.2z"/></g><g id="background_svg__XMLID_1544_"><path id="background_svg__XMLID_1521_" class="background_svg__st106" d="M441.3 1043c7.8 0 15.9-1.8 19.4-2.7-6.8-10.9-26-19.3-45.4-19.4-21.1-.1-37.7 9.5-37 21.5.6 12 21.6 21.9 46.9 22.3 23.3.3 39.3-7.9 37.8-18.7-8.4-2.1-21.7-3-21.7-3z"/><ellipse id="background_svg__XMLID_1509_" class="background_svg__st104" cx="422.7" cy="1042.8" rx="4.3" ry="1.2"/></g><g id="background_svg__XMLID_1571_"><path id="background_svg__XMLID_1520_" class="background_svg__st105" d="M343.8 1045.1c-8.1.9-16.9 3.6-20.8 4.9 5.4 10 27.4 16.2 51 14 25.1-2.4 39.4-13.9 32.9-25.7-5.9-11.7-27.2-19-48.5-16.4-20.1 2.4-35.8 12.3-36.5 22.8 8.3 1.1 21.9.4 21.9.4z"/><ellipse id="background_svg__XMLID_1512_" class="background_svg__st107" cx="368.5" cy="1041.6" rx="4.7" ry="1.2"/></g><g id="background_svg__XMLID_1572_"><path id="background_svg__XMLID_1519_" class="background_svg__st107" d="M314.9 1096.8c-5.6 3-9.3 7.5-10.8 9.6 20.4 6.3 48.2 5.4 63.1-2.7 15.1-8.8 9.4-22.7-10.5-30.9-18.8-8.1-44.9-7.5-60.5 1.3-15.4 8.1-16.3 20.3-1.3 28.5 9.2-1.4 20-5.8 20-5.8z"/></g><g id="background_svg__XMLID_1588_"><path id="background_svg__XMLID_1586_" class="background_svg__st108" d="M369.4 1044.1c19.1.1 28.7-10.9 27.5-11-12.6-1.3-37 11-27.5 11z"/><path id="background_svg__XMLID_1589_" class="background_svg__st108" d="M369.8 1044.1c-19.1.1-28.7-10.9-27.5-11 12.7-1.3 37.1 11 27.5 11z"/><g id="background_svg__XMLID_1585_"><path id="background_svg__XMLID_1584_" class="background_svg__st109" d="M368 1036.5c-8.7-.5-17.1-9.4-17.3-19.1 0 0 23.5 19.4 17.3 19.1z"/><path id="background_svg__XMLID_1583_" class="background_svg__st109" d="M369.9 1036.1c8.7-.5 16.8-10.1 17-19.8 0 0-23.3 20.1-17 19.8z"/><path id="background_svg__XMLID_1582_" class="background_svg__st108" d="M365.1 1036.2c-5.7.4-6.4-22.8-6-24.2.4-1.5 15.3 23.6 6 24.2z"/><path id="background_svg__XMLID_1581_" class="background_svg__st108" d="M366.7 1035.1c5.3 2 12.6-20 12.6-21.5.1-1.5-21.3 18.3-12.6 21.5z"/><path id="background_svg__XMLID_1580_" class="background_svg__st109" d="M371.1 1035c-5.7 1.7-7.5-20.9-6.4-21.3s13.4 19.2 6.4 21.3z"/><path id="background_svg__XMLID_1587_" class="background_svg__st109" d="M367.2 1035c5.7 1.7 7.5-20.9 6.4-21.3s-13.3 19.2-6.4 21.3z"/></g><path id="background_svg__XMLID_1578_" class="background_svg__st110" d="M368.4 1040.2c-7.7 0-1.5-28.7 0-28.8s9.4 28.8 0 28.8z"/><path id="background_svg__XMLID_1574_" class="background_svg__st111" d="M368.4 1042.9c-6.9 2.6-16.3-25.9-16.3-27.9 0-1.9 27.7 23.7 16.3 27.9z"/><path id="background_svg__XMLID_1579_" class="background_svg__st111" d="M367.8 1042.9c6.9 2.6 16.3-25.9 16.3-27.9.1-1.9-27.6 23.7-16.3 27.9z"/><path id="background_svg__XMLID_1576_" class="background_svg__st110" d="M369.4 1044.1c-11.3-.6-22.1-12.1-22.3-24.7 0 0 30.4 25.1 22.3 24.7z"/><path id="background_svg__XMLID_1577_" class="background_svg__st110" d="M369.1 1044.1c11.3-.6 21.7-13 22-25.6 0 0-30.1 26-22 25.6z"/></g><g id="background_svg__XMLID_1592_"><path id="background_svg__XMLID_1611_" class="background_svg__st108" d="M374.4 1081.3c19.1.1 28.7-10.9 27.5-11-12.6-1.3-37 11-27.5 11z"/><path id="background_svg__XMLID_1610_" class="background_svg__st108" d="M374.8 1081.3c-19.1.1-28.7-10.9-27.5-11 12.7-1.3 37.1 11 27.5 11z"/><g id="background_svg__XMLID_1603_"><path id="background_svg__XMLID_1609_" class="background_svg__st109" d="M373 1073.7c-8.7-.5-17.1-9.4-17.3-19.1 0 0 23.5 19.5 17.3 19.1z"/><path id="background_svg__XMLID_1608_" class="background_svg__st109" d="M374.9 1073.3c8.7-.5 16.8-10.1 17-19.8 0 0-23.3 20.1-17 19.8z"/><path id="background_svg__XMLID_1607_" class="background_svg__st108" d="M370.1 1073.4c-5.7.4-6.4-22.8-6-24.2.4-1.5 15.3 23.6 6 24.2z"/><path id="background_svg__XMLID_1606_" class="background_svg__st108" d="M371.7 1072.4c5.3 2 12.6-20 12.6-21.5s-21.3 18.2-12.6 21.5z"/><path id="background_svg__XMLID_1605_" class="background_svg__st109" d="M376.1 1072.2c-5.7 1.7-7.5-20.9-6.4-21.3 1-.4 13.4 19.3 6.4 21.3z"/><path id="background_svg__XMLID_1604_" class="background_svg__st109" d="M372.2 1072.2c5.7 1.7 7.5-20.9 6.4-21.3-1-.4-13.4 19.3-6.4 21.3z"/></g><path id="background_svg__XMLID_1602_" class="background_svg__st110" d="M373.4 1077.4c-7.7 0-1.5-28.7 0-28.8 1.5-.1 9.4 28.8 0 28.8z"/><path id="background_svg__XMLID_1601_" class="background_svg__st111" d="M373.4 1080.2c-6.9 2.6-16.3-25.9-16.3-27.8 0-2 27.7 23.5 16.3 27.8z"/><path id="background_svg__XMLID_1600_" class="background_svg__st111" d="M372.8 1080.2c6.9 2.6 16.3-25.9 16.3-27.8.1-2-27.6 23.5-16.3 27.8z"/><path id="background_svg__XMLID_1599_" class="background_svg__st110" d="M374.4 1081.3c-11.3-.6-22.1-12.1-22.3-24.7 0 0 30.4 25.2 22.3 24.7z"/><path id="background_svg__XMLID_1598_" class="background_svg__st110" d="M374.1 1081.3c11.3-.6 21.7-13 22-25.6 0 .1-30.1 26.1-22 25.6z"/></g></g><g id="background_svg__XMLID_1634_"><ellipse id="background_svg__XMLID_2234_" class="background_svg__st98" cx="74.4" cy="702" rx="31" ry="12.1"/><path id="background_svg__XMLID_2235_" class="background_svg__st98" d="M26.3 678c0 2.1-4.4 3.8-9.8 3.8s-9.8-1.7-9.8-3.8c0-2.1 4.4-3.8 9.8-3.8s9.8 1.6 9.8 3.8z"/><ellipse id="background_svg__XMLID_2237_" class="background_svg__st98" cx="25" cy="715.3" rx="20.2" ry="9.8"/><ellipse id="background_svg__XMLID_2238_" class="background_svg__st98" cx="70" cy="720.9" rx="17.6" ry="9.8"/><ellipse id="background_svg__XMLID_2236_" class="background_svg__st98" cx="27.2" cy="666.6" rx="6.6" ry="3"/><g id="background_svg__XMLID_1939_"><path id="background_svg__XMLID_1941_" class="background_svg__st104" d="M67.1 682.3c-.4-1.6-1.9-3.4-2.6-4.2-6.9.9-12.2 4.8-12 9.2.2 4.8 8.2 8.4 17.6 8.1 9.3-.3 15.2-4.6 13.3-9.4-1.7-4.5-8.3-7.9-15.3-8.1-1 1.7-1 4.4-1 4.4z"/><path id="background_svg__XMLID_1940_" class="background_svg__st105" d="M69.4 687.6c0 .3-.6.5-1.4.5-.8 0-1.4-.2-1.4-.5s.6-.5 1.4-.5c.8 0 1.4.2 1.4.5z"/></g><g id="background_svg__XMLID_1936_"><path id="background_svg__XMLID_1938_" class="background_svg__st106" d="M100.9 704.2c3.1 0 6.4-.7 7.8-1.1-2.7-4.4-10.5-7.8-18.3-7.8-8.5 0-15.2 3.8-14.9 8.7.3 4.8 8.7 8.9 18.9 9 9.4.1 15.9-3.2 15.2-7.6-3.4-.8-8.7-1.2-8.7-1.2z"/><path id="background_svg__XMLID_1937_" class="background_svg__st104" d="M95.1 704.2c0 .3-.8.5-1.7.5s-1.7-.2-1.7-.5.8-.5 1.7-.5 1.7.2 1.7.5z"/></g><g id="background_svg__XMLID_1950_"><path id="background_svg__XMLID_1968_" class="background_svg__st106" d="M22.8 675.7c1.6-.3 3.3-.9 4-1.2-1.8-2.1-6-3.2-10.1-2.6-4.4.6-7.6 3.2-7.1 5.7s5.2 3.9 10.5 3.2c4.9-.7 8-2.9 7.3-5.1-1.8-.2-4.6 0-4.6 0z"/><path id="background_svg__XMLID_1967_" class="background_svg__st104" d="M19.8 676.1c0 .1-.4.3-.8.4-.5.1-.9 0-.9-.1s.4-.3.8-.4c.5-.1.9 0 .9.1z"/></g><g id="background_svg__XMLID_1933_"><path id="background_svg__XMLID_1935_" class="background_svg__st105" d="M47 699.2c-3.3.4-6.8 1.4-8.4 2 2.2 4 11.1 6.5 20.6 5.6 10.1-1 15.9-5.6 13.3-10.4-2.4-4.7-11-7.7-19.6-6.6-8.1 1-14.4 5-14.7 9.2 3.3.5 8.8.2 8.8.2z"/><path id="background_svg__XMLID_1934_" class="background_svg__st107" d="M58.9 697.8c0 .3-.8.5-1.9.5-1 0-1.9-.2-1.9-.5s.8-.5 1.9-.5c1 0 1.9.2 1.9.5z"/></g><g id="background_svg__XMLID_1945_"><path id="background_svg__XMLID_1949_" class="background_svg__st105" d="M48.4 716.1c-2.5.3-5.3 1.1-6.6 1.5 1.7 3.2 8.6 5.1 16.1 4.4 7.9-.8 12.4-4.4 10.4-8.1-1.9-3.7-8.6-6-15.3-5.2-6.3.8-11.3 3.9-11.5 7.2 2.6.4 6.9.2 6.9.2z"/><ellipse id="background_svg__XMLID_1946_" class="background_svg__st107" cx="56.2" cy="715" rx="1.5" ry=".4"/></g><g id="background_svg__XMLID_1972_"><path id="background_svg__XMLID_2006_" class="background_svg__st105" d="M8.7 672.2c-1.5.2-3.1.7-3.8.9 1 1.8 5 2.9 9.3 2.5 4.6-.4 7.2-2.5 6-4.7-1.1-2.1-5-3.5-8.8-3-3.7.4-6.5 2.2-6.6 4.2 1.5.2 3.9.1 3.9.1z"/><path id="background_svg__XMLID_1994_" class="background_svg__st107" d="M14.1 671.5c0 .1-.4.2-.8.2-.5 0-.8-.1-.8-.2s.4-.2.8-.2.8.1.8.2z"/></g><g id="background_svg__XMLID_1930_"><path id="background_svg__XMLID_1932_" class="background_svg__st107" d="M16.5 716.4c-2.3 1.2-3.8 3-4.4 3.9 8.2 2.6 19.5 2.2 25.5-1.1 6.1-3.6 3.8-9.2-4.2-12.5-7.6-3.3-18.1-3-24.4.5-6.2 3.3-6.6 8.2-.5 11.5 3.6-.5 8-2.3 8-2.3z"/><path id="background_svg__XMLID_1931_" class="background_svg__st104" d="M24.3 713.2c0 .4-.7.7-1.5.7-.9 0-1.5-.3-1.5-.7s.7-.7 1.5-.7c.8-.1 1.5.3 1.5.7z"/></g><g id="background_svg__XMLID_2007_"><path id="background_svg__XMLID_2009_" class="background_svg__st107" d="M24.8 666.9c-.7.4-1.1.9-1.3 1.2 2.4.8 5.8.6 7.6-.3 1.8-1.1 1.1-2.7-1.3-3.7-2.3-1-5.4-.9-7.3.2-1.8 1-2 2.4-.2 3.4 1.2-.3 2.5-.8 2.5-.8z"/><path id="background_svg__XMLID_2008_" class="background_svg__st104" d="M27.2 665.9c0 .1-.2.2-.5.2s-.5-.1-.5-.2.2-.2.5-.2.5.1.5.2z"/></g><g id="background_svg__XMLID_1796_"><path id="background_svg__XMLID_1929_" class="background_svg__st108" d="M91.7 703.4c7.7 0 11.6-4.4 11.1-4.4-5.1-.6-14.9 4.4-11.1 4.4z"/><path id="background_svg__XMLID_1928_" class="background_svg__st108" d="M91.9 703.4c-7.7 0-11.6-4.4-11.1-4.4 5.1-.6 15 4.4 11.1 4.4z"/><g id="background_svg__XMLID_1871_"><path id="background_svg__XMLID_1927_" class="background_svg__st109" d="M91.1 700.3c-3.5-.2-6.9-3.8-7-7.7.1 0 9.6 7.9 7 7.7z"/><path id="background_svg__XMLID_1906_" class="background_svg__st109" d="M91.9 700.2c3.5-.2 6.8-4.1 6.9-8 0 0-9.4 8.1-6.9 8z"/><path id="background_svg__XMLID_1905_" class="background_svg__st108" d="M90 700.2c-2.3.2-2.6-9.2-2.4-9.8.1-.5 6.1 9.6 2.4 9.8z"/><path id="background_svg__XMLID_1901_" class="background_svg__st108" d="M90.6 699.8c2.2.8 5.1-8.1 5.1-8.7 0-.6-8.6 7.4-5.1 8.7z"/><path id="background_svg__XMLID_1873_" class="background_svg__st109" d="M92.4 699.7c-2.3.7-3-8.4-2.6-8.6.4-.1 5.4 7.8 2.6 8.6z"/><path id="background_svg__XMLID_1872_" class="background_svg__st109" d="M90.8 699.7c2.3.7 3-8.4 2.6-8.6-.4-.1-5.4 7.8-2.6 8.6z"/></g><path id="background_svg__XMLID_1866_" class="background_svg__st110" d="M91.3 701.8c-3.1 0-.6-11.6 0-11.6s3.8 11.6 0 11.6z"/><path id="background_svg__XMLID_1858_" class="background_svg__st111" d="M91.3 702.9c-2.8 1-6.6-10.4-6.6-11.2s11.2 9.5 6.6 11.2z"/><path id="background_svg__XMLID_1820_" class="background_svg__st111" d="M91.1 702.9c2.8 1 6.6-10.4 6.6-11.2s-11.2 9.5-6.6 11.2z"/><path id="background_svg__XMLID_1815_" class="background_svg__st110" d="M91.7 703.4c-4.6-.2-8.9-4.9-9-10 0 .1 12.3 10.2 9 10z"/><path id="background_svg__XMLID_1807_" class="background_svg__st110" d="M91.6 703.4c4.6-.2 8.8-5.2 8.9-10.3 0 0-12.2 10.5-8.9 10.3z"/></g><g id="background_svg__XMLID_1632_"><path id="background_svg__XMLID_1795_" class="background_svg__st108" d="M19.6 708c7.7 0 11.6-4.4 11.1-4.4-5.1-.5-15 4.4-11.1 4.4z"/><path id="background_svg__XMLID_1794_" class="background_svg__st108" d="M19.8 708c-7.7 0-11.6-4.4-11.1-4.4 5.1-.5 14.9 4.4 11.1 4.4z"/><g id="background_svg__XMLID_1776_"><path id="background_svg__XMLID_1793_" class="background_svg__st109" d="M19 705c-3.5-.2-6.9-3.8-7-7.7.1 0 9.5 7.8 7 7.7z"/><path id="background_svg__XMLID_1792_" class="background_svg__st109" d="M19.8 704.8c3.5-.2 6.8-4.1 6.9-8-.1 0-9.4 8.1-6.9 8z"/><path id="background_svg__XMLID_1791_" class="background_svg__st108" d="M17.8 704.8c-2.3.2-2.6-9.2-2.4-9.8.2-.5 6.2 9.6 2.4 9.8z"/><path id="background_svg__XMLID_1784_" class="background_svg__st108" d="M18.5 704.4c2.2.8 5.1-8.1 5.1-8.7 0-.6-8.6 7.4-5.1 8.7z"/><path id="background_svg__XMLID_1783_" class="background_svg__st109" d="M20.3 704.4c-2.3.7-3-8.4-2.6-8.6.4-.2 5.4 7.7 2.6 8.6z"/><path id="background_svg__XMLID_1777_" class="background_svg__st109" d="M18.7 704.4c2.3.7 3-8.4 2.6-8.6-.4-.2-5.4 7.7-2.6 8.6z"/></g><path id="background_svg__XMLID_1775_" class="background_svg__st110" d="M19.2 706.5c-3.1 0-.6-11.6 0-11.6.6-.1 3.8 11.6 0 11.6z"/><path id="background_svg__XMLID_1774_" class="background_svg__st111" d="M19.2 707.6c-2.8 1-6.6-10.4-6.6-11.2s11.2 9.5 6.6 11.2z"/><path id="background_svg__XMLID_1773_" class="background_svg__st111" d="M19 707.6c2.8 1 6.6-10.4 6.6-11.2s-11.2 9.5-6.6 11.2z"/><path id="background_svg__XMLID_1772_" class="background_svg__st110" d="M19.6 708c-4.6-.2-8.9-4.9-9-10 0 .1 12.3 10.2 9 10z"/><path id="background_svg__XMLID_1754_" class="background_svg__st110" d="M19.5 708c4.6-.2 8.8-5.2 8.9-10.3-.1 0-12.2 10.5-8.9 10.3z"/></g><g id="background_svg__XMLID_1942_"><path id="background_svg__XMLID_1944_" class="background_svg__st104" d="M72.1 715.2c-.4-1.6-1.9-3.4-2.6-4.2-6.9.9-12.2 4.8-12 9.2.2 4.8 8.2 8.4 17.6 8.1 9.3-.3 15.2-4.6 13.3-9.4-1.7-4.5-8.3-7.9-15.3-8.1-1 1.6-1 4.4-1 4.4z"/><path id="background_svg__XMLID_1943_" class="background_svg__st105" d="M74.4 720.4c0 .3-.6.5-1.4.5-.8 0-1.4-.2-1.4-.5s.6-.5 1.4-.5c.8 0 1.4.2 1.4.5z"/></g></g><g id="background_svg__XMLID_1969_"><g id="background_svg__XMLID_58_"><path id="background_svg__XMLID_683_" class="background_svg__st7" d="M1901.3 151.5c-35.1-3.9-69.7 10.4-91.8 37.9-3.1-2.5-6.3-5-9.4-7.5 24.7-30.7 63.4-46.7 102.6-42.3-.5 3.9-.9 7.9-1.4 11.9z"/><path id="background_svg__XMLID_681_" class="background_svg__st69" d="M1845.6 147.7c1 2.3 3.1 4 5.8 4.4 4.1.6 8-2.2 8.6-6.3.2-1 .1-2-.1-2.9-4.9 1.2-9.7 2.9-14.3 4.8z"/><path id="background_svg__XMLID_680_" class="background_svg__st7" d="M1881.7 281.4c-34.7-6.6-63.5-30.5-76.5-63.3-3.7 1.5-7.5 3-11.2 4.4 14.5 36.7 46.7 63.3 85.5 70.7.7-3.9 1.4-7.8 2.2-11.8z"/><path id="background_svg__XMLID_678_" class="background_svg__st69" d="M1827.3 268.6c1.6-1.9 4.2-2.9 6.8-2.5 4.1.6 6.9 4.5 6.3 8.6-.2 1-.5 2-1 2.8-4.2-2.7-8.2-5.7-12.1-8.9z"/><path id="background_svg__XMLID_677_" class="background_svg__st7" d="M1819.4 167.1c-18.7 2.9-23.9 7.8-23.9 7.8-7.3 5.6-17 33.3-7.7 50.7.4.8 1 1.5 1.7 2.1 2.4 2.5 7.7 7 18.8 12.4 31 17.1 72.3 9.1 108.6-8.5 1.2-8.1 2.5-16.2 3.7-24.3-29.4-27.5-66.6-47.4-101.2-40.2z"/><path id="background_svg__XMLID_676_" fill="none" stroke="#7bc8c5" stroke-width="1.345" stroke-linecap="round" stroke-miterlimit="10" d="M1844.6 207.2l14.8 2.2"/><path id="background_svg__XMLID_675_" fill="#339993" d="M1815.7 190.1l28.9 17-32.6 7.7z"/><path id="background_svg__XMLID_674_" class="background_svg__st71" d="M1785.5 153.8c23.9 3.6 40.3 25.9 36.7 49.8-3.6 23.9-25.9 40.3-49.8 36.7-23.9-3.6-40.3-25.9-36.7-49.8 3.7-23.9 25.9-40.3 49.8-36.7z"/><g id="background_svg__XMLID_671_"><path id="background_svg__XMLID_673_" class="background_svg__st11" d="M1749.4 191.7s6.7 3.6 9.7 45c0 0-12-3.4-14.6-16.1-2.7-12.7.8-24.7 4.9-28.9z"/><path id="background_svg__XMLID_672_" class="background_svg__st11" d="M1749.1 193.6s7.5-1.4 22.6-40.1c0 0-12.7-.2-19 11.2-6.3 11.3-6.2 23.7-3.6 28.9z"/></g><g id="background_svg__XMLID_668_"><path id="background_svg__XMLID_670_" class="background_svg__st71" d="M1785.6 157.3l-.2.1-.3-.1-.2-.1-.2-.1h-.3l-.2-.2-.1-.2-.2-.1-.3-.1-.1-.2-.2-.2-.1-.2-.2-.2-.2-.1v-.3l-.1-.2-.1-.2-.1-.3v-.2l-.2-.2V153l.1-.3.1-.2.1-.2.1-.3v-.2l.2-.2.1-.2.2-.2v-.2l.3-.1.1-.3.2-.1.2-.1.2-.1.2-.2.2-.1.2-.1.3-.1.2-.1.3.1.2-.1h.5l.2.1.3-.1h.2l.3.1.2.1.2.1.2.1.3.1.2.1.1.2.2.2.2.1.2.1.2.2.1.2.1.2.1.3.1.2.2.2v.5l.1.2.1.2v.3l-.1.2.1.3-.2.2v.5l-.1.2v.3l-.1.2-.2.2-.1.2-.1.2-.2.1-.1.3-.2.1-.2.2-.2.1-.2.1-.3.1-.2.1-.2.1-.2.2h-.3l-.2.1-.2.1-.3-.1h-.4z"/><path id="background_svg__XMLID_669_" class="background_svg__st71" d="M1772.5 244.1l-.3.1h-.2l-.2-.1-.3-.1-.2-.1-.2-.1-.2-.3-.2-.1h-.2l-.1-.3-.3-.1-.1-.2-.1-.2-.2-.2v-.3l-.1-.2-.2-.2v-.4l-.2-.3v-.2l-.1-.3v-.2l.1-.2v-.5l.2-.2.1-.3v-.2l.1-.2.2-.2v-.3l.2-.1.1-.3.2-.1.2-.2.2-.1.2-.2.2-.1.2-.1.2-.1.2-.2h.2l.3-.1h.2l.3-.1.2.1.3-.1.2.1h.7l.2.2h.3l.2.1.2.1.2.2.2.2.1.1.2.2.3.1.2.2v.2l.2.2v.3l.1.2.2.1.1.3v.5l.1.2.1.2-.1.3v.2l-.1.3v.5l-.1.2-.1.2-.1.2-.1.2-.2.2v.3l-.3.1-.1.2-.2.2-.2.1-.1.2-.3.1-.2.1-.2.1-.2.1-.2.2-.3-.1-.2.2h-.7l-.3-.1z"/></g><path id="background_svg__XMLID_667_" class="background_svg__st69" d="M1660.2 179.1l88.6 55.3 12.4-81.9z"/><path id="background_svg__XMLID_666_" class="background_svg__st8" d="M1690.5 171.1l-30.3 8 32 20 8.4-5.7-11.2-10.8 10.2-4z"/><g id="background_svg__XMLID_660_"><path id="background_svg__XMLID_665_" class="background_svg__st7" d="M1713.8 186.2c1.9.3 4.1 1.7 4.1 1.7s-2.5.7-4.4.4c-1.9-.3-2.7-.9-2.6-1.4.1-.7 1-1 2.9-.7z"/><path id="background_svg__XMLID_664_" class="background_svg__st7" d="M1733.2 173.7c-.3 1.9-1.7 4.1-1.7 4.1s-.7-2.5-.4-4.4c.3-1.9.9-2.7 1.4-2.6.7.1 1 1 .7 2.9z"/><path id="background_svg__XMLID_663_" class="background_svg__st7" d="M1728.3 205.8c.3-1.9-.4-4.4-.4-4.4s-1.4 2.2-1.7 4.1c-.3 1.9 0 2.8.6 2.9.7.1 1.3-.6 1.5-2.6z"/><path id="background_svg__XMLID_662_" class="background_svg__st7" d="M1716.3 199.9c1.6-1.2 2.9-3.4 2.9-3.4s-2.5.6-4.1 1.7c-1.6 1.2-1.9 2-1.6 2.5.3.5 1.2.4 2.8-.8z"/><path id="background_svg__XMLID_661_" class="background_svg__st7" d="M1720 175.8c1.2 1.6 1.7 4.1 1.7 4.1s-2.2-1.3-3.4-2.9c-1.2-1.6-1.3-2.5-.8-2.8.4-.3 1.3 0 2.5 1.6z"/></g><path id="background_svg__XMLID_659_" transform="rotate(-81.402 1905.811 217.828)" class="background_svg__st69" d="M1896.4 205h19v25.7h-19z"/><g id="background_svg__XMLID_654_"><path id="background_svg__XMLID_658_" class="background_svg__st69" d="M1889 242.8l4.1-26.1 51.1 7.7-.7 4.7z"/><path id="background_svg__XMLID_656_" class="background_svg__st7" d="M1914.6 233.9c-.1.8-.1 1.7.1 2.4l13.6-3.4c-.8-2.5-2.9-4.5-5.7-4.9-3.8-.6-7.4 2.1-8 5.9z"/></g><g id="background_svg__XMLID_650_"><path id="background_svg__XMLID_653_" class="background_svg__st69" d="M1897.2 188.3l-3.7 26.2 51.1 7.7.7-4.7z"/><path id="background_svg__XMLID_651_" class="background_svg__st7" d="M1919.1 204.4c.1-.8.4-1.6.8-2.3l11.9 7.3c-1.5 2.2-4.1 3.4-6.9 3-3.8-.6-6.4-4.2-5.8-8z"/></g><g id="background_svg__XMLID_646_"><path id="background_svg__XMLID_649_" class="background_svg__st1" d="M1846 197.9c2.2.3 3.7 2.4 3.4 4.6-.3 2.2-2.4 3.7-4.6 3.4-2.2-.3-3.7-2.4-3.4-4.6.3-2.2 2.4-3.7 4.6-3.4z"/><path id="background_svg__XMLID_648_" class="background_svg__st1" d="M1844.5 208.1c2.2.3 3.7 2.4 3.4 4.6-.3 2.2-2.4 3.7-4.6 3.4-2.2-.3-3.7-2.4-3.4-4.6.3-2.3 2.3-3.8 4.6-3.4z"/><path id="background_svg__XMLID_647_" class="background_svg__st8" d="M1845 204.6c1.4.2 2.4 1.6 2.2 3-.2 1.4-1.6 2.4-3 2.2-1.4-.2-2.4-1.6-2.2-3 .2-1.5 1.5-2.5 3-2.2z"/></g><path id="background_svg__XMLID_645_" class="background_svg__st8" d="M1859.8 206.8c1.4.2 2.4 1.6 2.2 3-.2 1.4-1.6 2.4-3 2.2-1.4-.2-2.4-1.6-2.2-3 .2-1.4 1.6-2.4 3-2.2z"/><path id="background_svg__XMLID_644_" class="background_svg__st11" d="M1732.1 181.2c4.8.7 8 5.2 7.3 9.9-.7 4.8-5.2 8-9.9 7.3-4.8-.7-8-5.2-7.3-9.9.7-4.8 5.1-8.1 9.9-7.3z"/><path id="background_svg__XMLID_643_" class="background_svg__st8" d="M1889 242.8l6-1.5 7.5-49.7-5.3-3.2s-2.5 11.4-4.7 25.6c-1.8 12.2-3.5 28.8-3.5 28.8z"/><path id="background_svg__XMLID_611_" class="background_svg__st11" d="M1895.9 213.6c1.5.2 2.5 1.6 2.3 3.1-.2 1.5-1.6 2.5-3.1 2.3-1.5-.2-2.5-1.6-2.3-3.1.2-1.5 1.6-2.6 3.1-2.3z"/><path id="background_svg__XMLID_604_" class="background_svg__st11" d="M1764.8 177.1c.5-3.2 1.8-5.6 2.9-5.4l-1.8 11.5c-1.1-.2-1.6-2.9-1.1-6.1z"/><path id="background_svg__XMLID_603_" class="background_svg__st11" d="M1759.7 211.2c.5-3.2 1.8-5.6 2.9-5.4l-1.8 11.5c-1.2-.2-1.6-2.9-1.1-6.1z"/><path id="background_svg__XMLID_602_" d="M1777.6 196.5l13.2-5.3s2.4 3.2.4 9.4l-13.6-4.1z" fill="#bb674b"/><g id="background_svg__XMLID_598_"><path id="background_svg__XMLID_601_" class="background_svg__st74" d="M1790.4 214.2l.6-.2.5.1.5.3.4.2.5.1.5.3.3.5.4.2.6.2.2.4.5.3.2.5.3.4.4.4v.6l.3.4.3.4.2.5v.5l.3.5v.5l.1.5v1.1l-.1.5-.1.5-.3.5-.2.4-.1.5-.1.5-.4.4-.1.5-.5.3-.1.6-.5.2-.3.5-.5.2-.3.4-.5.2-.4.4-.5.1-.4.3-.5.2-.5.1-.6-.1-.4.3-.6-.1-.5.1-.5-.2-.5.1-.5-.1-.5-.1-.5-.3h-.5l-.5-.3-.5-.2-.4-.3-.3-.4-.4-.4-.4-.3-.5-.2-.3-.4-.2-.5-.4-.4v-.5l-.3-.5-.4-.4v-.5l-.2-.5v-.5l-.2-.5-.1-.5.2-.5-.1-.6.2-.5v-.5l.1-.5.2-.5.1-.5.2-.5.3-.4.4-.4.1-.5.5-.2.2-.6.5-.2.4-.3.4-.4.4-.2.5-.2.5-.2.4-.2.4-.4.6.1.5-.4h.5l.5.1.5-.1.5.2z"/><path id="background_svg__XMLID_599_" class="background_svg__st74" d="M1795.4 182l-.6.1-.5-.1-.5-.2-.4-.3-.6-.1-.4-.3-.3-.4-.4-.3-.6-.1-.3-.5-.4-.3-.3-.4-.2-.5-.4-.3-.1-.6-.2-.5-.3-.4-.2-.5v-.5l-.3-.4v-.6l-.1-.5-.1-.5.1-.5.1-.5v-.6l.3-.4.3-.5.1-.5.1-.5.4-.4.1-.5.5-.3.1-.5.5-.3.3-.5.5-.2.3-.4.5-.1.4-.4.5-.2.4-.3.5-.1.5-.2.5.1.5-.3.6.2.5-.2.5.2h1l.5.1.5.3.5.1.5.2.5.2.4.3.3.5.3.3.4.3.6.2.3.4.2.5.4.4v.6l.3.4.4.4v.6l.1.5.1.5.2.5.1.5-.2.5.1.5-.3.5v1l-.2.5-.1.5-.2.5-.4.4-.3.4-.1.6-.6.2-.1.5-.5.3-.4.3-.4.3-.4.3-.5.1-.5.3-.4.2-.5.4-.5-.1-.5.3-.5.1-.5-.1h-.5l-.5-.1z"/></g><path id="background_svg__XMLID_578_" d="M1801.1 208.3c6.4-3.6 7.7-12.3 2.7-17.6" fill="none" stroke="#593218" stroke-width="2.919" stroke-linecap="round" stroke-miterlimit="10"/><g id="background_svg__XMLID_59_"><g id="background_svg__XMLID_567_"><path id="background_svg__XMLID_577_" class="background_svg__st76" d="M1775.7 187.7c5 .8 9.6-2.7 10.4-7.6.8-5-2.7-9.6-7.6-10.4-5-.8-9.6 2.7-10.4 7.6-.8 5 2.7 9.7 7.6 10.4z"/><path id="background_svg__XMLID_576_" class="background_svg__st77" d="M1775.2 184c3 .5 5.8-1.6 6.3-4.6.5-3-1.6-5.8-4.6-6.3-3-.5-5.8 1.6-6.3 4.6-.5 3 1.6 5.8 4.6 6.3z"/><path id="background_svg__XMLID_575_" class="background_svg__st78" d="M1774.2 176.1c1.2.2 2 1.3 1.8 2.4-.2 1.2-1.3 2-2.4 1.8-1.2-.2-2-1.3-1.8-2.4.2-1.2 1.2-2 2.4-1.8z"/></g><g id="background_svg__XMLID_61_"><path id="background_svg__XMLID_67_" class="background_svg__st76" d="M1773.2 204.3c5 .8 8.4 5.4 7.6 10.4-.8 5-5.4 8.4-10.4 7.6-5-.8-8.4-5.4-7.6-10.4.8-4.9 5.4-8.3 10.4-7.6z"/><path id="background_svg__XMLID_65_" class="background_svg__st77" d="M1771.6 207.8c3 .5 5.1 3.3 4.6 6.3s-3.3 5.1-6.3 4.6-5.1-3.3-4.6-6.3 3.3-5.1 6.3-4.6z"/><path id="background_svg__XMLID_63_" class="background_svg__st78" d="M1769 210.8c1.2.2 2 1.3 1.8 2.4-.2 1.2-1.3 2-2.4 1.8-1.2-.2-2-1.3-1.8-2.4.1-1.2 1.2-2 2.4-1.8z"/></g></g></g><path id="background_svg__XMLID_338_" class="background_svg__st98" d="M1283.2 877.9l118.2 144.2 272.7 69.2 249.5 15.1V908.5z"/><g id="background_svg__XMLID_1624_"><path id="background_svg__XMLID_1875_" class="background_svg__st95" d="M1350.4 674.2c-7.6 21.3-78.6 177.9-67.2 203.7 14.1 31.8 371.6 114.4 639 121V702.3l-571.8-28.1z"/><g id="background_svg__XMLID_2106_"><g id="background_svg__XMLID_2104_"><path id="background_svg__XMLID_1590_" class="background_svg__st99" d="M1864.9 800.4c-6.7 5.7-14.9 7.1-18.4 3.1-3.5-4-.8-11.9 5.8-17.7 6.7-5.7 24.1-8.1 24.1-8.1s-4.9 16.9-11.5 22.7z"/><path id="background_svg__XMLID_2105_" class="background_svg__st99" d="M1888.1 802.1c5.7 6.7 13.6 9.3 17.7 5.8 4-3.5 2.6-11.7-3.1-18.4-5.7-6.7-22.6-11.6-22.6-11.6s2.2 17.6 8 24.2z"/></g><g id="background_svg__XMLID_2107_"><path id="background_svg__XMLID_2110_" class="background_svg__st99" d="M1864.9 832.1c-6.7 5.7-14.9 7.1-18.4 3.1-3.5-4-.8-11.9 5.8-17.7 6.7-5.7 24.1-8.1 24.1-8.1s-4.9 17-11.5 22.7z"/><path id="background_svg__XMLID_2108_" class="background_svg__st99" d="M1888.1 833.9c5.7 6.7 13.6 9.3 17.7 5.8 4-3.5 2.6-11.7-3.1-18.4-5.7-6.7-22.6-11.6-22.6-11.6s2.2 17.5 8 24.2z"/></g><g id="background_svg__XMLID_2112_"><path id="background_svg__XMLID_2114_" class="background_svg__st99" d="M1866.3 859.3c-5.8 5-13 6.2-16.1 2.7-3-3.5-.7-10.5 5.1-15.5s21.1-7.1 21.1-7.1-4.2 14.9-10.1 19.9z"/><path id="background_svg__XMLID_2113_" class="background_svg__st99" d="M1886.6 860.9c5 5.8 11.9 8.1 15.5 5.1 3.5-3 2.3-10.2-2.7-16.1-5-5.8-19.8-10.2-19.8-10.2s2 15.3 7 21.2z"/></g><g id="background_svg__XMLID_2115_"><path id="background_svg__XMLID_2117_" class="background_svg__st99" d="M1867.6 883.1c-5.1 4.4-11.5 5.5-14.1 2.4-2.7-3.1-.7-9.2 4.5-13.6 5.1-4.4 18.6-6.2 18.6-6.2s-3.9 13-9 17.4z"/><path id="background_svg__XMLID_2116_" class="background_svg__st99" d="M1885.4 884.5c4.4 5.1 10.5 7.1 13.6 4.5s2-9-2.4-14.1-17.4-8.9-17.4-8.9 1.8 13.4 6.2 18.5z"/></g><g id="background_svg__XMLID_2118_"><path id="background_svg__XMLID_2121_" class="background_svg__st99" d="M1869.4 903.6c-4.1 3.5-9.1 4.4-11.2 1.9-2.1-2.5-.5-7.3 3.6-10.8 4.1-3.5 14.8-4.9 14.8-4.9s-3.1 10.3-7.2 13.8z"/><path id="background_svg__XMLID_2120_" class="background_svg__st99" d="M1883.6 904.7c3.5 4.1 8.3 5.7 10.8 3.6s1.6-7.1-1.9-11.2-13.8-7.1-13.8-7.1 1.4 10.6 4.9 14.7z"/></g></g><g id="background_svg__XMLID_2170_"><g id="background_svg__XMLID_2198_"><path id="background_svg__XMLID_2225_" class="background_svg__st99" d="M1381.5 891.9c8.2-3.1 16.4-1.5 18.3 3.4 1.9 5-3.3 11.5-11.6 14.6-8.2 3.1-25.4-.8-25.4-.8s10.4-14.1 18.7-17.2z"/><path id="background_svg__XMLID_2204_" class="background_svg__st99" d="M1360.3 882.3c-3.1-8.2-9.6-13.4-14.6-11.6-5 1.9-6.5 10-3.4 18.3 3.1 8.2 17.2 18.7 17.2 18.7s3.9-17.2.8-25.4z"/></g><g id="background_svg__XMLID_2195_"><path id="background_svg__XMLID_2197_" class="background_svg__st99" d="M1392.4 862.1c8.2-3.1 16.4-1.5 18.3 3.4 1.9 5-3.3 11.5-11.6 14.6-8.2 3.1-25.4-.8-25.4-.8s10.5-14.1 18.7-17.2z"/><path id="background_svg__XMLID_2196_" class="background_svg__st99" d="M1371.3 852.5c-3.1-8.2-9.6-13.4-14.6-11.6-5 1.9-6.5 10-3.4 18.3 3.1 8.2 17.2 18.7 17.2 18.7s3.9-17.2.8-25.4z"/></g><g id="background_svg__XMLID_2192_"><path id="background_svg__XMLID_2194_" class="background_svg__st99" d="M1400.5 836.1c7.2-2.7 14.4-1.3 16 3 1.6 4.4-2.9 10.1-10.1 12.8-7.2 2.7-22.3-.7-22.3-.7s9.1-12.4 16.4-15.1z"/><path id="background_svg__XMLID_2193_" class="background_svg__st99" d="M1381.9 827.7c-2.7-7.2-8.4-11.8-12.8-10.1-4.4 1.6-5.7 8.8-3 16 2.7 7.2 15.1 16.4 15.1 16.4s3.4-15.1.7-22.3z"/></g><g id="background_svg__XMLID_2185_"><path id="background_svg__XMLID_2191_" class="background_svg__st99" d="M1407.5 813.3c6.3-2.4 12.6-1.2 14.1 2.6 1.4 3.8-2.6 8.8-8.9 11.2-6.3 2.4-19.6-.6-19.6-.6s8.1-10.8 14.4-13.2z"/><path id="background_svg__XMLID_2190_" class="background_svg__st99" d="M1391.2 805.9c-2.4-6.3-7.4-10.3-11.2-8.9-3.8 1.4-5 7.7-2.6 14.1 2.4 6.3 13.3 14.4 13.3 14.4s2.9-13.3.5-19.6z"/></g><g id="background_svg__XMLID_2173_"><path id="background_svg__XMLID_2175_" class="background_svg__st99" d="M1412.9 793.4c5-1.9 10.1-.9 11.2 2.1 1.1 3-2 7-7.1 8.9-5 1.9-15.6-.5-15.6-.5s6.4-8.6 11.5-10.5z"/><path id="background_svg__XMLID_2174_" class="background_svg__st99" d="M1399.9 787.5c-1.9-5-5.9-8.2-8.9-7.1-3 1.1-4 6.1-2.1 11.2 1.9 5 10.5 11.4 10.5 11.4s2.4-10.4.5-15.5z"/></g></g><path id="background_svg__XMLID_1874_" class="background_svg__st5" d="M1922.2 626.4c-155 5.1-525.7-38.7-570 43.2s570 108.1 570 108.1V626.4z"/></g><g id="background_svg__XMLID_1902_"><path id="background_svg__XMLID_1876_" d="M1639.6 642.6l92.9-316.7 82.5-26.7s44.4-238.7 44.8-242l62.3-18.5v616.1l-282.5-12.2z" fill="#515f0a"/><path id="background_svg__XMLID_1877_" fill="#62710e" d="M1857.2 322.8l32.7 330.6-250.3-10.8 92.9-316.7z"/><g id="background_svg__XMLID_54_"><path id="background_svg__XMLID_348_" class="background_svg__st102" d="M1781.4 434.5c0-3.4-23.3-6.2-52.1-6.2-9.9 0-19.2.3-27 .9l-3 10.3c8.5.7 18.9 1.1 30.1 1.1 28.6.1 52-2.7 52-6.1z"/><path id="background_svg__XMLID_350_" class="background_svg__st102" d="M1758.5 488.1c0-3.4-23.3-6.2-52.1-6.2-7 0-13.6.2-19.7.5l-3.3 11.2c6.9.4 14.7.6 23 .6 28.7 0 52.1-2.7 52.1-6.1z"/><path id="background_svg__XMLID_353_" class="background_svg__st102" d="M1735 453.6c0-2.8-16.1-5.2-38.1-5.9l-3.5 12c23.7-.7 41.6-3.1 41.6-6.1z"/><ellipse id="background_svg__XMLID_354_" class="background_svg__st102" cx="1778.5" cy="453.6" rx="33.4" ry="6.2"/><ellipse id="background_svg__XMLID_368_" class="background_svg__st102" cx="1745.1" cy="471.1" rx="33.4" ry="6.2"/><path id="background_svg__XMLID_417_" class="background_svg__st102" d="M1706.3 471.1c0-2.1-5.9-4-14.9-5.1l-3.1 10.6c10.7-1.1 18-3.1 18-5.5z"/></g><path id="background_svg__XMLID_1879_" class="background_svg__st93" d="M1857.2 322.8l65-155.5v487.5l-32.3-1.4z"/><path id="background_svg__XMLID_1878_" class="background_svg__st5" d="M1732.5 325.9l82.5-26.7 42.2 23.6z"/><path id="background_svg__XMLID_330_" class="background_svg__st103" d="M1859.8 57.2l62.8 17.6-.4-36.1z"/></g><g id="background_svg__XMLID_42_"><path id="background_svg__XMLID_45_" class="background_svg__st71" d="M1838.3 145.6l4.7 6.5 8.8-6.4c.1 0 .1-.1.2-.1 1.8-1.3 2.2-3.8.9-5.6-1.3-1.8-3.8-2.2-5.6-.9l-.2.2-8.8 6.3z"/><path id="background_svg__XMLID_44_" class="background_svg__st71" d="M1844.1 149.9l1.1 3 6-2.2h.1c.8-.3 1.3-1.2 1-2.1-.3-.8-1.2-1.3-2.1-1h-.1l-6 2.3z"/><path id="background_svg__XMLID_43_" transform="rotate(-36.08 1842.243 149.882)" class="background_svg__st8" d="M1839.7 143.3h5.2v13.1h-5.2z"/></g><g id="background_svg__XMLID_11_"><path id="background_svg__XMLID_40_" class="background_svg__st71" d="M1819.4 269.4l-1-8 10.8-1.4h.2c2.2-.3 4.2 1.3 4.5 3.5.3 2.2-1.3 4.2-3.5 4.5h-.2l-10.8 1.4z"/><path id="background_svg__XMLID_28_" class="background_svg__st71" d="M1820.6 262.3l-1.3-3 5.8-2.5h.1c.8-.4 1.8 0 2.1.8.4.8 0 1.8-.8 2.1h-.1l-5.8 2.6z"/><path id="background_svg__XMLID_17_" transform="rotate(-7.412 1819.267 263.53)" class="background_svg__st8" d="M1816.7 257h5.2v13.1h-5.2z"/></g></g><g id="background_svg__XMLID_533_"><ellipse id="background_svg__XMLID_2722_" class="background_svg__st98" cx="580.8" cy="917" rx="33.5" ry="15.1"/><ellipse id="background_svg__XMLID_2721_" class="background_svg__st98" cx="663.4" cy="932.2" rx="33.5" ry="15.1"/><ellipse id="background_svg__XMLID_2720_" class="background_svg__st98" cx="704.8" cy="919.1" rx="33.5" ry="15.1"/><g id="background_svg__XMLID_2717_"><path id="background_svg__XMLID_2719_" class="background_svg__st104" d="M579.3 951.6c-.7-3.1-3.6-6.4-4.9-7.9-12.9 1.7-22.9 9.1-22.6 17.3.5 9 15.4 15.8 33.1 15.2 17.5-.6 28.6-8.6 25-17.7-3.2-8.4-15.6-14.8-28.7-15.2-2 3.2-1.9 8.3-1.9 8.3z"/><path id="background_svg__XMLID_2718_" class="background_svg__st105" d="M583.6 961.4c0 .5-1.2.9-2.7.9s-2.7-.4-2.7-.9 1.2-.9 2.7-.9 2.7.4 2.7.9z"/></g><g id="background_svg__XMLID_2714_"><path id="background_svg__XMLID_2716_" class="background_svg__st107" d="M674.7 967.3c-3.5 1.9-5.9 4.8-6.9 6.1 12.9 4 30.5 3.4 39.9-1.7 9.5-5.6 6-14.4-6.6-19.6-11.9-5.1-28.4-4.8-38.3.8-9.7 5.1-10.3 12.8-.8 18.1 5.9-.9 12.7-3.7 12.7-3.7z"/><path id="background_svg__XMLID_2715_" class="background_svg__st104" d="M687 962.3c0 .6-1.1 1.2-2.4 1.2-1.3 0-2.4-.5-2.4-1.2s1.1-1.2 2.4-1.2c1.3 0 2.4.6 2.4 1.2z"/></g><g id="background_svg__XMLID_2711_"><path id="background_svg__XMLID_2713_" class="background_svg__st105" d="M711.4 959.1c-5.2 1.9-8.9 5.4-10.4 7 16.8 7.8 40.9 10.3 54.6 5 14-5.9 10.8-18.5-5.4-27.8-15.2-9.2-37.8-11.7-52.2-5.9-14.2 5.2-16.4 15.6-4.4 24.4 8-.2 17.8-2.7 17.8-2.7z"/><path id="background_svg__XMLID_2712_" class="background_svg__st104" d="M729 954.5c-.1.9-1.7 1.4-3.5 1.1-1.8-.2-3.2-1.2-3.1-2 .1-.9 1.7-1.4 3.5-1.1 1.8.2 3.2 1.1 3.1 2z"/></g><g id="background_svg__XMLID_565_"><path id="background_svg__XMLID_2710_" class="background_svg__st107" d="M679.8 919.7c-4.3 2.3-7.1 5.7-8.2 7.3 15.5 4.8 36.6 4.1 47.9-2 11.4-6.7 7.1-17.2-8-23.5-14.2-6.2-34.1-5.7-45.9 1-11.7 6.1-12.3 15.4-1 21.6 7-1.1 15.2-4.4 15.2-4.4z"/><path id="background_svg__XMLID_2709_" class="background_svg__st104" d="M694.5 913.6c0 .8-1.3 1.4-2.9 1.4-1.6 0-2.9-.6-2.9-1.4s1.3-1.4 2.9-1.4c1.6 0 2.9.7 2.9 1.4z"/></g><g id="background_svg__XMLID_562_"><path id="background_svg__XMLID_564_" class="background_svg__st104" d="M661.7 918.7c-.7-3.1-3.6-6.4-4.9-7.9-12.9 1.7-22.9 9.1-22.6 17.3.5 9 15.4 15.8 33.1 15.2 17.5-.6 28.6-8.6 25-17.7-3.2-8.4-15.6-14.8-28.7-15.2-2 3.2-1.9 8.3-1.9 8.3z"/><path id="background_svg__XMLID_563_" class="background_svg__st105" d="M666 928.5c0 .5-1.2.9-2.7.9-1.5 0-2.7-.4-2.7-.9s1.2-.9 2.7-.9c1.6 0 2.7.4 2.7.9z"/></g><g id="background_svg__XMLID_558_"><path id="background_svg__XMLID_560_" class="background_svg__st105" d="M568.2 910.4c-6.1.7-12.8 2.7-15.8 3.7 4.1 7.6 20.8 12.3 38.7 10.6 19-1.8 29.9-10.6 25-19.5-4.5-8.9-20.6-14.4-36.8-12.5-15.3 1.8-27.1 9.3-27.7 17.3 6.3.9 16.6.4 16.6.4z"/><path id="background_svg__XMLID_559_" class="background_svg__st107" d="M590.5 907.7c0 .5-1.6.9-3.5.9-2 0-3.5-.4-3.5-.9s1.6-.9 3.5-.9 3.5.4 3.5.9z"/></g><g id="background_svg__XMLID_555_"><path id="background_svg__XMLID_557_" class="background_svg__st107" d="M618 929.1c-4.3 2.3-7.1 5.7-8.2 7.3 15.5 4.8 36.6 4.1 47.9-2 11.4-6.7 7.1-17.2-8-23.5-14.2-6.2-34.1-5.7-45.9 1-11.7 6.1-12.3 15.4-1 21.6 7-1.1 15.2-4.4 15.2-4.4z"/><path id="background_svg__XMLID_556_" class="background_svg__st104" d="M632.7 923c0 .8-1.3 1.4-2.9 1.4-1.6 0-2.9-.6-2.9-1.4s1.3-1.4 2.9-1.4c1.6 0 2.9.6 2.9 1.4z"/></g><g id="background_svg__XMLID_535_"><path id="background_svg__XMLID_554_" class="background_svg__st108" d="M642.8 913.6c24.4.1 36.7-13.9 35.1-14.1-16.1-1.6-47.3 14.1-35.1 14.1z"/><path id="background_svg__XMLID_553_" class="background_svg__st108" d="M643.3 913.6c-24.4.1-36.7-13.9-35.1-14.1 16.1-1.6 47.4 14.1 35.1 14.1z"/><g id="background_svg__XMLID_544_"><path id="background_svg__XMLID_552_" class="background_svg__st109" d="M641 903.9c-11.2-.6-21.8-12-22.1-24.4 0 0 30.1 24.9 22.1 24.4z"/><path id="background_svg__XMLID_551_" class="background_svg__st109" d="M643.4 903.4c11.2-.6 21.5-12.8 21.7-25.3 0 0-29.7 25.7-21.7 25.3z"/><path id="background_svg__XMLID_550_" class="background_svg__st108" d="M637.2 903.5c-7.3.5-8.2-29.1-7.7-31 .6-1.8 19.7 30.2 7.7 31z"/><path id="background_svg__XMLID_547_" class="background_svg__st108" d="M639.4 902.2c6.8 2.5 16.1-25.6 16.1-27.5s-27.3 23.3-16.1 27.5z"/><path id="background_svg__XMLID_546_" class="background_svg__st109" d="M645 902c-7.3 2.2-9.6-26.7-8.2-27.3 1.3-.5 17 24.6 8.2 27.3z"/><path id="background_svg__XMLID_545_" class="background_svg__st109" d="M640 902c7.3 2.2 9.6-26.7 8.2-27.3-1.4-.5-17.1 24.6-8.2 27.3z"/></g><path id="background_svg__XMLID_543_" class="background_svg__st110" d="M641.5 908.7c-9.8 0-1.9-36.7 0-36.8 1.9-.2 12 36.8 0 36.8z"/><path id="background_svg__XMLID_542_" class="background_svg__st111" d="M641.5 912.1c-8.8 3.3-20.9-33.1-20.9-35.6.1-2.5 35.5 30.2 20.9 35.6z"/><path id="background_svg__XMLID_541_" class="background_svg__st111" d="M640.8 912.1c8.8 3.3 20.9-33.1 20.9-35.6-.1-2.5-35.5 30.2-20.9 35.6z"/><path id="background_svg__XMLID_539_" class="background_svg__st110" d="M642.8 913.6c-14.5-.8-28.2-15.5-28.5-31.6 0 .1 38.9 32.2 28.5 31.6z"/><path id="background_svg__XMLID_537_" class="background_svg__st110" d="M642.4 913.6c14.5-.8 27.8-16.6 28.1-32.7 0 .1-38.4 33.3-28.1 32.7z"/></g></g></svg>