<svg id="Capa_1" data-name="Capa 1" xmlns="http://www.w3.org/2000/svg" viewBox="0 0 154.62 154.62"><path d="M0,154.62A154.63,154.63,0,0,0,154.62,0H0Z" style="fill:#ccc7aa"/><path d="M139.52,37.78a3.79,3.79,0,1,1,5.36.2A3.78,3.78,0,0,1,139.52,37.78Z" style="fill:#ff9311"/><path d="M137.76,15.47a5.31,5.31,0,1,1,7.51.28A5.31,5.31,0,0,1,137.76,15.47Z" style="fill:#ff9311"/><path d="M133.53,55.76A5.31,5.31,0,1,1,141,56,5.3,5.3,0,0,1,133.53,55.76Z" style="fill:#ff9311"/><path d="M146.65,32.47a1.92,1.92,0,1,1,2.71.11A1.92,1.92,0,0,1,146.65,32.47Z" style="fill:#ff9311"/><path d="M143.52,42.45a1.92,1.92,0,1,1,2.72.1A1.92,1.92,0,0,1,143.52,42.45Z" style="fill:#ff9311"/><path d="M143.46,48a1.92,1.92,0,1,1,2.71.1A1.91,1.91,0,0,1,143.46,48Z" style="fill:#ff9311"/><path d="M138.57,45.58a1.92,1.92,0,1,1,2.71.1A1.92,1.92,0,0,1,138.57,45.58Z" style="fill:#ff9311"/><path d="M142.35,27.35a1.92,1.92,0,1,1,2.71.1A1.92,1.92,0,0,1,142.35,27.35Z" style="fill:#ff9311"/><path d="M147.69,26.66a1.92,1.92,0,1,1,2.71.1A1.92,1.92,0,0,1,147.69,26.66Z" style="fill:#ff9311"/><path d="M145.48,21.21a1.92,1.92,0,1,1,2.71.1A1.92,1.92,0,0,1,145.48,21.21Z" style="fill:#ff9311"/><path d="M144.88,38a3.81,3.81,0,0,0,1.17-3.32,3.72,3.72,0,0,1-1.12,2,3.8,3.8,0,0,1-6.34-2.24,3.8,3.8,0,0,0,6.29,3.6Z" style="fill:#e87e0c"/><path d="M145.27,15.75a5.28,5.28,0,0,0,1.64-4.65,5.31,5.31,0,0,1-10.45-.39,5.32,5.32,0,0,0,8.81,5Z" style="fill:#e87e0c"/><path d="M141,56a5.31,5.31,0,0,0,1.64-4.65A5.31,5.31,0,0,1,132.23,51,5.32,5.32,0,0,0,141,56Z" style="fill:#e87e0c"/><path d="M149.36,32.58a1.91,1.91,0,0,0,.57-1.8,1.89,1.89,0,0,1-.53.87,1.91,1.91,0,0,1-2.71-.1,1.86,1.86,0,0,1-.47-.91,1.92,1.92,0,0,0,3.14,1.94Z" style="fill:#e87e0c"/><path d="M146.24,42.55a1.91,1.91,0,0,0,.56-1.8,1.91,1.91,0,0,1-3.71-.13,1.92,1.92,0,0,0,3.15,1.93Z" style="fill:#e87e0c"/><path d="M146.17,48.12a1.89,1.89,0,0,0,.56-1.8,1.84,1.84,0,0,1-.53.88,1.91,1.91,0,0,1-3.17-1,1.91,1.91,0,0,0,3.14,1.94Z" style="fill:#e87e0c"/><path d="M141.28,45.68a1.91,1.91,0,0,0,.57-1.8,1.89,1.89,0,0,1-.53.87,1.91,1.91,0,0,1-2.71-.1,1.86,1.86,0,0,1-.47-.91,1.91,1.91,0,0,0,3.14,1.94Z" style="fill:#e87e0c"/><path d="M145.06,27.45a1.9,1.9,0,0,0,.57-1.8,1.91,1.91,0,0,1-3.71-.14,1.91,1.91,0,0,0,3.14,1.94Z" style="fill:#e87e0c"/><path d="M150.4,26.76A1.93,1.93,0,0,0,151,25a2,2,0,0,1-.53.87,1.91,1.91,0,0,1-2.71-.1,1.86,1.86,0,0,1-.47-.91,1.91,1.91,0,0,0,3.14,1.94Z" style="fill:#e87e0c"/><path d="M148.19,21.31a1.93,1.93,0,0,0,.57-1.8,2,2,0,0,1-.53.87,1.91,1.91,0,0,1-2.71-.1,1.86,1.86,0,0,1-.47-.91,1.91,1.91,0,0,0,3.14,1.94Z" style="fill:#e87e0c"/><path d="M0,144A144,144,0,0,0,144,0H0Z" style="fill:#ff9311"/><path d="M0,144A144,144,0,0,0,144,0H0Z" style="fill:#ff9311"/><path d="M138.37,0A144,144,0,0,1,0,143.88V144A144,144,0,0,0,144,0Z" style="fill:#e57a05"/><path d="M0,24.42A24.43,24.43,0,0,0,24.42,0H0Z" style="fill:#e57a05"/><path d="M21.2,0H0V24.2A24.43,24.43,0,0,0,21.2,0Z" style="fill:#ffa13b"/><path d="M98.94,54.29,65.43,27.85a1.43,1.43,0,0,0-1.75,0L30.16,54.29a1.41,1.41,0,0,0-.46,1.57,1.42,1.42,0,0,0,1.34,1h9.68V95.05H55.58V68.62H73.52V95.05H88.39V56.81h9.67a1.41,1.41,0,0,0,.88-2.52Z" style="fill:#e57a05"/><path d="M95.33,51,61.81,24.54a1.4,1.4,0,0,0-1.75,0L26.55,51a1.42,1.42,0,0,0,.87,2.53H37.1V91.73H52V65.3H69.91V91.73H84.77V53.5h9.68A1.42,1.42,0,0,0,95.33,51Z" style="fill:#fff"/><path d="M8.66,14.83C7.72,10.48,7,9.72,2.6,8.78,7,7.83,7.72,7.07,8.66,2.72c.94,4.35,1.7,5.11,6.05,6.06C10.36,9.72,9.6,10.48,8.66,14.83Z" style="fill:#f9bd82"/></svg>