<svg data-name="Capa 1" xmlns="http://www.w3.org/2000/svg" viewBox="0 0 255 255"><circle cx="127.5" cy="127.5" r="127.5" transform="rotate(-45 127.501 127.497)" fill="#db3c05"/><circle cx="127.5" cy="126.82" r="89.55" transform="rotate(-67.38 127.49 126.81)" fill="none"/><path d="M41.69 127.5a11 11 0 1 1-11-11 11 11 0 0 1 11 11zM235.24 127.5a11 11 0 1 1-11-11 11 11 0 0 1 11 11zM127.42 213.23a11 11 0 1 1-11 11 11 11 0 0 1 11-11zM127.42 19.68a11 11 0 1 1-11 11.05 11 11 0 0 1 11-11.05z" fill="#b72700"/><circle cx="127.5" cy="127.5" r="96.7" transform="rotate(-81.03 127.51 127.498)" fill="#fce8c8"/><path d="M127.5 217.17A96.68 96.68 0 0 1 30.89 124c0 1.16-.09 2.33-.09 3.51a96.7 96.7 0 0 0 193.4 0c0-1.18 0-2.35-.09-3.51a96.68 96.68 0 0 1-96.61 93.17z" fill="#efd7b4"/><path d="M126.68 68.36L93.35 101.7H71.8a4.9 4.9 0 0 0-4.9 4.9v34.77a4.9 4.9 0 0 0 4.9 4.9h21.55l33.33 33.34a4.33 4.33 0 0 0 7.39-3.06V71.42a4.33 4.33 0 0 0-7.39-3.06zM149.08 140a3.5 3.5 0 0 1-2.48-6 14.52 14.52 0 0 0 0-20.53 3.5 3.5 0 1 1 5-4.95 21.52 21.52 0 0 1 0 30.43 3.49 3.49 0 0 1-2.52 1.05zM173.18 164.07a3.5 3.5 0 0 1-2.47-6 48.63 48.63 0 0 0 0-68.75 3.5 3.5 0 0 1 4.95-4.95 55.64 55.64 0 0 1 0 78.65 3.51 3.51 0 0 1-2.48 1.05z" fill="#513f39"/><path d="M160.83 151.72a3.5 3.5 0 0 1-2.47-6 31.16 31.16 0 0 0 0-44 3.5 3.5 0 1 1 4.95-5 38.16 38.16 0 0 1 0 53.95 3.51 3.51 0 0 1-2.48 1.05z" fill="#513f39"/></svg>