<svg xmlns="http://www.w3.org/2000/svg" viewBox="0 0 154.62 154.62"><g id="Capa_2" data-name="Capa 2"><ellipse cx="77.31" cy="80.08" rx="64.09" ry="64.48" style="fill:#13776b"/><ellipse cx="77.31" cy="74.54" rx="64.09" ry="64.48" style="fill:#1faaa0"/><path d="M28,75.46a6.26,6.26,0,0,1-6.53,6.22,6.33,6.33,0,0,1-6-6A6.26,6.26,0,1,1,28,75.46Z" style="fill:#169387"/><ellipse cx="132.53" cy="75.45" rx="6.25" ry="6.29" style="fill:#169387"/><path d="M77.11,26a6.29,6.29,0,1,1,6.25-6.34v.07A6.25,6.25,0,0,1,77.11,26Z" style="fill:#169387"/><path d="M77.11,137.45a6.29,6.29,0,1,1,6.25-6.34v.07a6.25,6.25,0,0,1-6.25,6.27Z" style="fill:#169387"/><ellipse cx="77.31" cy="74.54" rx="47.3" ry="47.59" style="fill:#169387"/><ellipse cx="77.31" cy="74.54" rx="43.24" ry="43.51" style="fill:#20bcad"/><ellipse cx="21.81" cy="75.45" rx="4.75" ry="4.78" style="fill:#057265"/><ellipse cx="132.53" cy="75.45" rx="4.75" ry="4.78" style="fill:#057265"/><path d="M77,24.3a4.78,4.78,0,0,1-4.82-4.89,4.79,4.79,0,0,1,9.57.07v.07a4.73,4.73,0,0,1-4.71,4.75Z" style="fill:#057265"/><path d="M77,136.12a4.77,4.77,0,0,1-4.82-4.88,4.79,4.79,0,0,1,9.57.06v.08a4.72,4.72,0,0,1-4.71,4.74Z" style="fill:#057265"/><path d="M108.06,95.76c.52-3.35,1-6.7,1.55-10.06l.78-5.08c.13-.87.26-1.73.4-2.6s-.09-.93-.58-1.59a1.29,1.29,0,0,1-.09-1.1,9.93,9.93,0,0,0,.36-1.09c.08-.47,0-1,.35-1.34a2.09,2.09,0,0,0,.28-.24.82.82,0,0,0,.13-.38c.19-1,.61-2,.89-3a32.15,32.15,0,0,0,.53-3.5l.52-3.51c.07-.42.1-.84.15-1.26s.35-1.12.14-1.58c-.32-.69-1.31-.35-1.87-.29-1.37.14-2.73.12-4.09.29a1.79,1.79,0,0,0-.78.22,3.59,3.59,0,0,0-.36.32,1.51,1.51,0,0,1-1.06.33c-.21,0-.42-.09-.64-.09a1.08,1.08,0,0,0-1,.64c-.08.19-.11.41-.26.53s-.53.13-.73.28-.23.39-.37.58-.42.33-.53.53c-.22.38,0,.86,0,1.3a1.91,1.91,0,0,1-.17.62l-.53,1.3a.46.46,0,0,1-.09.15.5.5,0,0,1-.2.08.89.89,0,0,0-.46.53,1.45,1.45,0,0,1-.39.59.41.41,0,0,1-.61-.12,4.11,4.11,0,0,0,.42-1,13.7,13.7,0,0,0,.07-1.81,12.25,12.25,0,0,1,.7-2.28,2.49,2.49,0,0,0-.22-2.28c-.25-.33-.65-.53-.82-.92s-.23-.69-.65-.86a8.71,8.71,0,0,0-1.58-.33,6.47,6.47,0,0,0-2.7-.14.93.93,0,0,0-.61.43c-.06.12-.08.27-.18.35a.51.51,0,0,1-.34.07l-1.8,0a.54.54,0,0,1-.25-.06.59.59,0,0,1-.18-.36,1.83,1.83,0,0,0-1.55-1.32,2,2,0,0,1-.84-.15,1.63,1.63,0,0,1-.47-.66c-.75-1.47-2.75-1.69-4.19-2.16-1.82-.59-3.65-1.16-5.5-1.67a46.59,46.59,0,0,0-14.86-1.89h0a2.58,2.58,0,0,0-.48,0l-.94.09-.49.05-.48.06.45-3h0c.07-.46-1.14-1-2.72-1.26s-2.89-.08-3,.37h0L47.11,105.7A44.27,44.27,0,0,0,52.25,110l3.49-22.68c.8-.11,1.58-.2,2.39-.25h0l1.15,0h1.58c.34,0,1.14.19,1.33-.2a1.39,1.39,0,0,0,.09-.46,1.8,1.8,0,0,1,.93-1.35c.17-.1.37-.17.45-.35s-.06-.49-.12-.74a2.51,2.51,0,0,1,.31-1.37,9.4,9.4,0,0,0,.31-1.91A2.64,2.64,0,0,1,65,79c.2-.17.45-.29.57-.53s.1-.41.19-.59.34-.34.53-.2.09.29.06.45l-.45,2.11a1.21,1.21,0,0,1-.15.44c-.12.18-.32.29-.4.48s.13.67.2,1a2.83,2.83,0,0,0,.07.53c.07.15.12.27.17.41a2.48,2.48,0,0,1-.11,1,1.72,1.72,0,0,0,.58,1.54.61.61,0,0,1,.17.19c.1.21-.13.49,0,.7s.4.13.53.29a.68.68,0,0,1,.11.31c.18.73,1,.67,1.53.79.74.15,1.48.31,2.21.49.42.1,1.4.6,1.78.32a.86.86,0,0,1,.18-.14c.17-.08.37,0,.56,0a1.46,1.46,0,0,0,.5-.12,2.63,2.63,0,0,1,.88-.16.47.47,0,0,1,.43.15c.13.2,0,.56.19.66l.13,0c.16.13,0,.43.2.64s.59.15.87.19a19.68,19.68,0,0,1,2.51.77c1.74.57,3.47,1.15,5.21,1.71,1.49.48,3,1,4.49,1.39a15.21,15.21,0,0,0,4.15.92.34.34,0,0,0,.29-.08c.13-.11.07-.32.1-.48s.39-.39.68-.42a1.26,1.26,0,0,0,.79-.25c.53-.56-.47-1.91.81-1.58,1.51.4-.08,2,.89,2.6a1.87,1.87,0,0,1,.32.15c.14.13.15.35.26.53a1,1,0,0,0,.6.35,15,15,0,0,0,3.77.53c1.13,0,2.26,0,3.39,0C105.05,96.12,108,96,108.06,95.76ZM71.84,67.45a1.33,1.33,0,0,0-1.19.73,4.41,4.41,0,0,0-.39,1.42.37.37,0,0,1-.14.29.3.3,0,0,1-.26,0,1.26,1.26,0,0,1-.9-1,.75.75,0,0,0,0-.3c-.1-.26-.44-.32-.72-.29a1.25,1.25,0,0,1-.81,0,1.75,1.75,0,0,0-.27-.16c-.16-.05-.33.08-.49.17a1.26,1.26,0,0,1-1.58-.37,2.08,2.08,0,0,1-.28-1.06.79.79,0,0,1,.08-.45c.19-.26.58-.19.89-.11a2.56,2.56,0,0,0,1.2,0,1.21,1.21,0,0,0,.87-.77c.13-.43,0-1,.3-1.27l.11.13a2.11,2.11,0,0,1,1.48.89,2.73,2.73,0,0,0,.45.62c.5.39,1.39.16,1.69.72A1.19,1.19,0,0,1,71.84,67.45Zm33.46,16c-.14.07-.3.11-.43.18-.53.28-.74.9-1.09,1.34l-.22.28a.26.26,0,0,1-.19.13c-.15,0-.17-.21-.18-.36s-.11-.42-.13-.63c0-.42.43-.63.53-1.05a.71.71,0,0,0-.33-.85c-.2-.07-.44,0-.64-.1s-.36-.45-.61-.58a1.62,1.62,0,0,0-.49-.08c-.16,0-.34-.13-.35-.3a1,1,0,0,1,0-.23.55.55,0,0,0-.36-.53,1.54,1.54,0,0,0-.67-.07A1.45,1.45,0,0,1,101,79.3c.39-.11.86.06,1.18-.2s.42-.6.7-.47H103l.64.14a3.72,3.72,0,0,0,.23,1.1,1.25,1.25,0,0,0,.79.75c.38.09.85-.05,1.12.24s.24.89.63.92A2.5,2.5,0,0,1,105.3,83.46Z" style="fill:#1faaa0"/><path d="M110.58,71.13a.82.82,0,0,0,.13-.37c.2-1.06.62-2,.9-3a33.92,33.92,0,0,0,.52-3.5c.18-1.17.36-2.33.53-3.5.07-.42.1-.85.15-1.26s.35-1.12.14-1.59c-.32-.68-1.31-.34-1.87-.28-1.37.14-2.73.11-4.09.28a1.85,1.85,0,0,0-.77.22c-.13.1-.25.21-.37.32a1.49,1.49,0,0,1-1,.33c-.21,0-.43-.06-.64-.08a1,1,0,0,0-1,.64c-.08.18-.11.4-.27.52s-.52.13-.73.29-.23.39-.36.57-.42.33-.53.53c-.22.38,0,.86,0,1.3a2.28,2.28,0,0,1-.18.63l-.53,1.29a.28.28,0,0,1-.08.15.67.67,0,0,1-.21.09.94.94,0,0,0-.46.52,1.33,1.33,0,0,1-.39.6.4.4,0,0,1-.57-.07l0,0a4.55,4.55,0,0,0,.41-1,13.78,13.78,0,0,0,.08-1.82,11.93,11.93,0,0,1,.7-2.27,2.51,2.51,0,0,0-.22-2.29c-.26-.32-.65-.53-.83-.91s-.23-.7-.64-.86a7.91,7.91,0,0,0-1.59-.34,6.61,6.61,0,0,0-2.69-.14.89.89,0,0,0-.61.44c-.06.11-.08.26-.19.35a.57.57,0,0,1-.34.07l-1.79,0a.51.51,0,0,1-.25-.05c-.12-.07-.15-.23-.18-.36a1.85,1.85,0,0,0-1.55-1.33,1.87,1.87,0,0,1-.84-.15,1.41,1.41,0,0,1-.47-.66c-.76-1.47-2.76-1.69-4.19-2.15-1.82-.59-3.66-1.16-5.51-1.67C72.22,48.92,66,48,59.92,49q-2.84,18.45-5.66,36.89c.05-.33,4.09-.42,4.53-.43h1.59c.33,0,1.13.19,1.32-.2a1.79,1.79,0,0,0,.09-.46,1.77,1.77,0,0,1,.93-1.35c.17-.1.37-.17.45-.35s-.06-.49-.12-.75A2.59,2.59,0,0,1,63.36,81a9.51,9.51,0,0,0,.31-1.91,2.69,2.69,0,0,1,.8-1.72,2.21,2.21,0,0,0,.58-.52c.1-.18.1-.41.19-.59s.34-.34.52-.21.1.3.07.46c-.16.7-.3,1.4-.46,2.11a1.21,1.21,0,0,1-.15.44c-.11.18-.31.29-.39.48s.13.67.19,1c0,.18,0,.35.07.53s.13.27.17.41a2.48,2.48,0,0,1-.11,1,1.71,1.71,0,0,0,.59,1.54.79.79,0,0,1,.17.19c.1.21-.13.49,0,.7s.39.13.52.29a.64.64,0,0,1,.11.3c.19.74.95.68,1.53.79.74.16,1.48.32,2.21.5.42.1,1.4.6,1.78.32a.94.94,0,0,1,.19-.14c.16-.08.36,0,.55,0a1.41,1.41,0,0,0,.5-.12,2.63,2.63,0,0,1,.88-.16.46.46,0,0,1,.43.15c.13.2,0,.56.19.66l.13,0c.16.12-.05.43.21.64s.58.14.86.19a18.33,18.33,0,0,1,2.52.77c1.73.57,3.46,1.15,5.2,1.7,1.49.49,3,1,4.49,1.4a15.67,15.67,0,0,0,4.15.92.46.46,0,0,0,.3-.08c.12-.12.06-.32.1-.48s.39-.39.67-.43a1.22,1.22,0,0,0,.8-.24c.52-.56-.48-1.91.81-1.58,1.5.39-.08,2,.88,2.59a1.59,1.59,0,0,1,.32.16c.15.12.16.35.26.53a1,1,0,0,0,.61.35,15.37,15.37,0,0,0,3.76.53c1.13,0,2.26,0,3.39,0,.33,0,3.31-.17,3.34-.39.52-3.35,1-6.7,1.55-10.06.25-1.69.52-3.39.78-5.08l.39-2.6c.14-.88-.07-.92-.57-1.58a1.31,1.31,0,0,1-.09-1.11,9.77,9.77,0,0,0,.36-1.08c.08-.47,0-1,.35-1.35A1.9,1.9,0,0,0,110.58,71.13ZM71.31,65.87a1.31,1.31,0,0,0-1.18.73,4.14,4.14,0,0,0-.4,1.41.4.4,0,0,1-.13.3.39.39,0,0,1-.26,0,1.24,1.24,0,0,1-.9-1,1.55,1.55,0,0,0,0-.31c-.1-.25-.45-.31-.72-.28a1.25,1.25,0,0,1-.81,0,1.48,1.48,0,0,0-.27-.16c-.17,0-.34.08-.49.17a1.26,1.26,0,0,1-1.59-.38,1.93,1.93,0,0,1-.28-1,.77.77,0,0,1,.08-.45c.19-.26.58-.2.89-.12a2.56,2.56,0,0,0,1.2.05,1.21,1.21,0,0,0,.87-.77c.12-.43,0-1,.3-1.27l.11.13a2.07,2.07,0,0,1,1.48.89,2.47,2.47,0,0,0,.45.61c.5.4,1.4.17,1.69.73A1.19,1.19,0,0,1,71.31,65.87Zm33.47,16c-.15.07-.3.1-.44.18-.52.28-.74.9-1.09,1.34l-.22.28c0,.06-.11.13-.18.13s-.18-.21-.19-.37-.11-.41-.12-.62c0-.43.43-.63.53-1a.71.71,0,0,0-.33-.85c-.2-.08-.44,0-.63-.1s-.37-.45-.63-.58a1.51,1.51,0,0,0-.48-.08.4.4,0,0,1-.35-.3.91.91,0,0,1,0-.23.54.54,0,0,0-.36-.53,1.71,1.71,0,0,0-.67-.08,1.46,1.46,0,0,1,.86-1.3c.39-.11.86,0,1.18-.2s.43-.6.7-.47h.09l.64.14a3.79,3.79,0,0,0,.23,1.1,1.23,1.23,0,0,0,.8.74c.38.1.85,0,1.12.25s.23.88.62.91A2.57,2.57,0,0,1,104.78,81.88Z" style="fill:#fce8c8"/><path d="M63.27,48.59a32.06,32.06,0,0,0-3.38.38L54.23,85.86a32,32,0,0,1,3.38-.37Z" style="fill:#f2d5b1"/><path d="M46.45,105.05a45.48,45.48,0,0,0,5.14,4.47l9.75-63.66L55.66,45Z" style="fill:#2b3d3b"/><path d="M61.34,45.86c-.07.44-1.4.61-3,.37s-2.78-.81-2.71-1.26,1.39-.62,3-.38S61.41,45.4,61.34,45.86Z" style="fill:#4e6d67"/></g></svg>